<svg xmlns="http://www.w3.org/2000/svg" width="810" viewBox="0 0 810 810" height="810" version="1.0"><defs><clipPath id="a"><path d="M 85 145.84375 L 490 145.84375 L 490 547 L 85 547 Z M 85 145.84375"/></clipPath></defs><path fill="#FFAB67" d="M 506.644531 481.300781 C 507.757812 482.953125 506.15625 485.074219 504.261719 484.472656 L 483.390625 477.757812 C 477.246094 475.78125 470.558594 476.949219 465.378906 480.796875 C 449.515625 492.582031 429.804688 499.484375 408.457031 499.234375 C 357.160156 498.640625 315.523438 456.1875 315.902344 404.90625 C 316.28125 352.945312 359.011719 311.050781 411.300781 311.984375 C 459.652344 312.859375 501.625 354.1875 503.199219 402.5 C 503.695312 417.859375 500.484375 432.414062 494.394531 445.347656 C 491.382812 451.746094 491.816406 459.226562 495.761719 465.09375 Z M 198.96875 389.878906 C 147.867188 394.464844 109.632812 439.988281 113.996094 491.089844 C 115.8125 512.347656 124.585938 531.292969 137.851562 545.9375 C 142.183594 550.71875 143.992188 557.261719 142.617188 563.554688 L 137.949219 584.964844 C 137.527344 586.90625 139.792969 588.296875 141.339844 587.03125 L 156.417969 574.636719 C 161.886719 570.140625 169.285156 568.992188 175.949219 571.375 C 189.421875 576.183594 204.222656 577.972656 219.472656 575.992188 C 267.425781 569.765625 304.527344 524.003906 300.714844 475.816406 C 296.597656 423.695312 250.753906 385.230469 198.96875 389.878906 Z M 509.519531 270.125 L 435.316406 309.359375 L 484.019531 344.300781 Z M 509.519531 270.125"/><path fill="#FF6B5B" d="M 323.015625 225.148438 C 344.460938 272.480469 323.242188 328.425781 275.375 349.484375 C 231.109375 368.953125 175.671875 349.027344 153.984375 305.8125 C 147.085938 292.078125 143.902344 277.515625 144 263.214844 C 144.046875 256.140625 140.519531 249.535156 134.480469 245.859375 L 117.808594 235.71875 C 116.109375 234.683594 116.664062 232.078125 118.644531 231.84375 L 140.40625 229.191406 C 146.808594 228.410156 152.390625 224.546875 155.476562 218.894531 C 164.933594 201.546875 179.941406 187.019531 199.417969 178.300781 C 246.25 157.339844 301.847656 178.4375 323.015625 225.148438 Z M 506.644531 481.300781 L 495.753906 465.101562 C 491.804688 459.234375 491.375 451.753906 494.386719 445.355469 C 498.316406 437.003906 501.03125 427.988281 502.34375 418.515625 C 473.8125 420.015625 445.054688 453.695312 445.054688 453.695312 C 445.054688 453.695312 403.035156 473.550781 401.894531 473.929688 C 401.023438 474.21875 363.34375 472.976562 344.292969 472.519531 C 360.945312 488.769531 383.550781 498.945312 408.46875 499.234375 C 429.804688 499.484375 449.527344 492.582031 465.386719 480.796875 C 470.566406 476.949219 477.257812 475.78125 483.398438 477.757812 L 504.269531 484.472656 C 506.15625 485.074219 507.757812 482.945312 506.644531 481.300781 Z M 459.8125 296.410156 L 435.316406 309.359375 L 479.359375 340.957031 C 477.167969 322.683594 465.882812 304.859375 459.8125 296.410156 Z M 505.886719 280.6875 C 504.675781 277.847656 503.449219 275.644531 502.300781 273.945312 L 481.085938 285.164062 C 484.261719 290.628906 490.050781 302.0625 493.273438 317.378906 Z M 505.886719 280.6875"/><path fill="#FFF" d="M 329.039062 284.417969 C 322.710938 312.316406 303.710938 337.019531 275.367188 349.484375 C 231.097656 368.953125 175.664062 349.027344 153.972656 305.8125 C 151.304688 300.488281 149.199219 295.050781 147.617188 289.542969 C 154.910156 286.179688 170.148438 282.199219 194.097656 290.261719 C 229.238281 302.097656 246.042969 311.257812 246.042969 311.257812 C 246.042969 311.257812 297.054688 276.582031 329.039062 284.417969 Z M 247.195312 503.320312 L 234.585938 493.398438 L 229.625 497.597656 L 234.210938 506.753906 C 234.210938 506.753906 232.304688 517.066406 234.210938 519.359375 C 236.117188 521.648438 215.875 503.699219 215.875 503.699219 L 175.007812 516.300781 L 175.007812 529.28125 L 138.066406 546.171875 C 142.246094 550.925781 143.972656 557.351562 142.625 563.554688 L 137.957031 584.964844 C 137.535156 586.90625 139.800781 588.296875 141.347656 587.03125 L 156.429688 574.636719 C 161.894531 570.140625 169.296875 568.992188 175.960938 571.375 C 189.429688 576.183594 204.230469 577.972656 219.480469 575.992188 C 263.957031 570.214844 299.0625 530.441406 300.894531 486.253906 C 274.324219 482.695312 247.195312 503.320312 247.195312 503.320312 Z M 247.195312 503.320312"/><path fill="#C04F44" d="M 461.871094 410.921875 C 450.027344 423.902344 436.28125 434.972656 436.28125 434.972656 L 445.066406 453.679688 C 427.871094 482.695312 401.902344 473.910156 401.902344 473.910156 L 393.785156 451.675781 C 360.546875 450.148438 351.097656 441.464844 351.476562 421.609375 C 351.851562 401.753906 367.480469 358.78125 372.230469 343.375 C 376.976562 327.96875 391.203125 320.855469 391.203125 320.855469 C 425.957031 306.007812 458.8125 318.144531 476.382812 347.921875 C 493.957031 377.699219 473.707031 397.941406 461.871094 410.921875 Z M 217.027344 401.761719 C 208.242188 390.6875 199.457031 392.601562 199.457031 392.601562 C 199.457031 392.601562 191.046875 380 176.535156 370.457031 C 162.023438 360.910156 124.964844 363.964844 103.195312 393.367188 C 81.425781 422.769531 87.917969 467.441406 107.015625 487.296875 C 126.117188 507.152344 176.921875 508.679688 176.921875 508.679688 L 181.886719 513.640625 L 215.882812 503.71875 L 234.21875 519.375 L 234.21875 506.773438 L 227.726562 493.792969 C 227.726562 493.792969 238.804688 483.871094 240.332031 472.035156 C 241.863281 460.195312 238.425781 446.828125 221.234375 421.636719 C 221.226562 421.609375 225.8125 412.828125 217.027344 401.761719 Z M 175.382812 266.59375 C 175.382812 273.46875 175.761719 289.503906 179.207031 298.664062 C 182.640625 307.824219 195.246094 330.734375 195.246094 330.734375 L 188.890625 342.921875 C 199.050781 349.007812 210.308594 353.242188 221.953125 355.371094 L 228.859375 333.792969 C 241.464844 340.28125 257.507812 332.261719 257.507812 332.261719 L 264.460938 353.40625 C 268.15625 352.335938 271.804688 351.050781 275.375 349.476562 C 282.804688 346.214844 289.582031 342.105469 295.660156 337.324219 L 282.722656 319.660156 C 282.722656 319.660156 291.128906 302.476562 295.707031 287.589844 C 300.292969 272.699219 299.527344 262.386719 299.90625 256.285156 C 300.285156 250.171875 299.527344 245.210938 299.527344 245.210938 C 299.527344 245.210938 301.433594 239.097656 298.386719 236.804688 C 295.328125 234.515625 293.800781 233.75 293.800781 233.75 C 293.800781 233.75 285.015625 179.15625 236.890625 176.863281 C 188.765625 174.570312 177.6875 239.863281 177.6875 239.863281 C 172.335938 249.785156 175.394531 259.71875 175.394531 259.71875 C 175.394531 259.71875 175.382812 259.71875 175.382812 266.59375 Z M 294.375 429.625 C 286.929688 425.328125 283.488281 433.347656 283.488281 433.347656 C 276.894531 431.628906 276.042969 437.644531 276.042969 437.644531 C 276.042969 437.644531 263.144531 419.890625 260.574219 416.171875 C 258.003906 412.449219 252.265625 414.742188 254.269531 418.75 C 256.277344 422.757812 269.171875 445.671875 269.171875 445.671875 C 269.171875 445.671875 250.261719 431.640625 245.960938 429.347656 C 241.664062 427.054688 237.652344 429.058594 240.808594 433.070312 C 243.957031 437.078125 264.585938 458.550781 264.585938 458.550781 C 260 465.425781 257.425781 469.722656 263.15625 477.453125 C 267.058594 482.722656 276.632812 486.539062 282.921875 488.878906 C 284.65625 490.433594 286.382812 492.113281 287.792969 493.777344 C 291.527344 498.164062 295.410156 505.550781 297.039062 508.789062 C 297.039062 508.789062 317.304688 482.902344 311.003906 461.992188 C 307.261719 449.617188 301.820312 433.921875 294.375 429.625 Z M 449.066406 477.453125 C 443.050781 474.019531 443.625 478.882812 438.175781 477.453125 C 432.738281 476.023438 433.023438 483.179688 427.863281 479.746094 C 422.710938 476.3125 422.710938 484.328125 418.414062 480.886719 C 414.113281 477.453125 410.96875 482.890625 406.667969 491.484375 C 405.257812 494.308594 404.0625 496.851562 403.089844 499 C 403.089844 499 401.507812 503.796875 404.089844 508.09375 C 406.667969 512.390625 412.972656 525.28125 417.550781 527.285156 C 422.125 529.289062 422.136719 524.992188 422.136719 524.992188 C 422.136719 524.992188 429.015625 527.859375 430.445312 523.277344 C 430.445312 523.277344 434.167969 524.707031 436.171875 520.984375 C 436.171875 520.984375 440.183594 520.984375 441.324219 518.980469 C 442.375 517.136719 437.144531 498.386719 436.289062 495.347656 C 444.570312 492.886719 452.375 489.316406 459.523438 484.796875 C 456.726562 482.578125 452.609375 479.476562 449.066406 477.453125 Z M 449.066406 477.453125"/><g clip-path="url(#a)"><path fill="#230738" d="M 107.015625 487.285156 C 107.015625 487.285156 94.796875 479.648438 88.304688 461.707031 C 81.8125 443.757812 89.832031 417.035156 89.832031 417.035156 C 89.832031 399.847656 96.324219 381.90625 123.832031 366.636719 C 151.328125 351.363281 173.488281 354.796875 178.074219 359.757812 C 178.074219 359.757812 179.214844 374.652344 166.230469 386.867188 C 153.246094 399.082031 116.953125 419.324219 116.953125 419.324219 C 129.171875 430.011719 137.195312 463.621094 139.875 468.582031 C 142.542969 473.542969 139.109375 478.890625 134.523438 475.070312 C 129.9375 471.25 113.519531 459.414062 113.519531 459.414062 C 95.550781 468.574219 107.015625 487.285156 107.015625 487.285156 Z M 145.214844 496.070312 C 129.9375 499.503906 118.472656 494.925781 118.472656 494.925781 C 139.476562 506.378906 169.277344 508.292969 169.277344 508.292969 C 169.277344 508.292969 160.492188 492.625 145.214844 496.070312 Z M 480.296875 395.261719 C 469.121094 410.15625 436.269531 434.972656 436.269531 434.972656 L 437.609375 425.050781 C 437.609375 425.050781 457.375 415.890625 461.671875 401.574219 C 465.972656 387.253906 450.785156 379.238281 450.785156 379.238281 C 450.785156 379.238281 441.898438 400.996094 435.316406 401.574219 C 430.875 401.960938 432.945312 393.5 434.671875 383.921875 L 418.457031 383.585938 C 418.082031 385.015625 417.578125 386.4375 416.902344 387.820312 C 413.199219 395.46875 405.867188 400.054688 398.601562 400.054688 C 396.128906 400.054688 393.667969 399.523438 391.347656 398.398438 C 383.109375 394.410156 379.585938 384.289062 382.640625 374.816406 L 380.105469 373.824219 C 378.234375 376.71875 369.164062 390.867188 367.671875 394.839844 C 367.453125 395.40625 367.554688 395.703125 367.660156 395.902344 C 368.417969 397.269531 372.265625 398.039062 375.070312 398.605469 C 376.625 398.921875 378.09375 399.21875 379.253906 399.605469 C 379.871094 399.8125 380.207031 400.484375 380 401.105469 C 379.835938 401.601562 379.367188 401.914062 378.875 401.914062 C 378.75 401.914062 378.621094 401.898438 378.496094 401.851562 C 377.480469 401.511719 376.078125 401.230469 374.59375 400.933594 C 370.800781 400.171875 366.871094 399.378906 365.585938 397.050781 C 365.234375 396.421875 364.929688 395.390625 365.441406 394.003906 C 366.257812 391.820312 369.074219 386.992188 371.878906 382.417969 C 368.40625 385.691406 364.414062 387.570312 360.710938 387.570312 C 359.199219 387.570312 357.742188 387.253906 356.394531 386.609375 C 349.496094 383.265625 347.921875 372.199219 352.894531 361.953125 C 355.261719 357.0625 358.75 353.0625 362.714844 350.691406 C 366.835938 348.21875 370.996094 347.769531 374.433594 349.429688 C 380.628906 352.433594 382.507812 361.664062 379.234375 370.941406 L 383.488281 372.605469 C 383.605469 372.332031 383.703125 372.074219 383.828125 371.804688 C 388.800781 361.558594 400.257812 356.8125 409.375 361.222656 C 416.578125 364.710938 420.175781 372.890625 418.925781 381.222656 L 435.074219 381.554688 C 435.730469 377.644531 436.242188 373.644531 436.171875 370.070312 C 435.882812 356.890625 426.433594 356.324219 425.570312 346.589844 C 425.570312 346.589844 399.214844 344.875 380.878906 324.253906 C 362.542969 303.636719 365.125 298.199219 367.132812 296.769531 C 369.136719 295.339844 376.871094 299.636719 376.871094 299.636719 C 376.871094 299.636719 372.570312 291.90625 376.007812 290.753906 C 379.441406 289.613281 385.457031 293.046875 385.457031 293.046875 C 385.457031 293.046875 385.746094 288.75 387.75 288.175781 C 389.753906 287.601562 402.074219 297.335938 410.957031 299.914062 C 419.84375 302.492188 460.523438 309.9375 477.417969 326.835938 C 494.316406 343.734375 491.472656 380.378906 480.296875 395.261719 Z M 375.808594 373.035156 C 375.996094 372.640625 376.167969 372.242188 376.339844 371.847656 C 376.257812 371.597656 376.25 371.328125 376.347656 371.066406 C 376.457031 370.796875 376.652344 370.609375 376.886719 370.472656 C 379.953125 362.214844 378.597656 354.058594 373.40625 351.542969 C 372.382812 351.050781 371.25 350.796875 370.0625 350.796875 C 368.148438 350.796875 366.0625 351.4375 363.957031 352.703125 C 360.386719 354.851562 357.222656 358.492188 355.054688 362.96875 C 350.65625 372.039062 351.726562 381.683594 357.457031 384.460938 C 363.175781 387.238281 371.410156 382.113281 375.808594 373.035156 Z M 414.769531 386.777344 C 419.167969 377.710938 416.289062 367.191406 408.351562 363.34375 C 406.363281 362.382812 404.25 361.925781 402.117188 361.925781 C 395.742188 361.925781 389.269531 366.015625 385.96875 372.820312 C 381.570312 381.898438 384.449219 392.40625 392.390625 396.253906 C 400.328125 400.109375 410.375 395.855469 414.769531 386.777344 Z M 397.9375 373.914062 C 396.03125 373.914062 394.476562 375.460938 394.476562 377.375 C 394.476562 379.289062 396.023438 380.835938 397.9375 380.835938 C 399.84375 380.835938 401.398438 379.289062 401.398438 377.375 C 401.398438 375.460938 399.84375 373.914062 397.9375 373.914062 Z M 370 366.609375 C 368.09375 366.609375 366.539062 368.15625 366.539062 370.070312 C 366.539062 371.984375 368.085938 373.53125 370 373.53125 C 371.914062 373.53125 373.460938 371.984375 373.460938 370.070312 C 373.460938 368.15625 371.914062 366.609375 370 366.609375 Z M 258.558594 256.6875 C 260.46875 256.6875 262.023438 255.144531 262.023438 253.226562 C 262.023438 251.324219 260.476562 249.769531 258.558594 249.769531 C 256.644531 249.769531 255.097656 251.3125 255.097656 253.226562 C 255.109375 255.144531 256.652344 256.6875 258.558594 256.6875 Z M 222.753906 258.40625 C 224.660156 258.40625 226.214844 256.859375 226.214844 254.945312 C 226.214844 253.039062 224.667969 251.484375 222.753906 251.484375 C 220.847656 251.484375 219.292969 253.03125 219.292969 254.945312 C 219.292969 256.859375 220.839844 258.40625 222.753906 258.40625 Z M 402.460938 413.742188 C 405.195312 410.167969 405.859375 406.625 404.207031 404.519531 C 403.269531 403.324219 400.832031 401.699219 395.035156 404.207031 C 386.742188 407.800781 376.347656 408.40625 376.25 408.40625 C 375.59375 408.441406 375.089844 408.996094 375.125 409.652344 C 375.160156 410.308594 375.71875 410.8125 376.375 410.777344 C 376.816406 410.75 387.292969 410.148438 395.976562 406.382812 C 399.65625 404.792969 401.679688 405.132812 402.34375 405.976562 C 403.089844 406.929688 402.855469 409.320312 400.582031 412.304688 C 396.308594 417.914062 386.4375 420.441406 386.339844 420.46875 C 385.699219 420.628906 385.320312 421.265625 385.476562 421.90625 C 385.609375 422.445312 386.09375 422.804688 386.625 422.804688 C 386.726562 422.804688 386.816406 422.792969 386.914062 422.769531 C 387.34375 422.652344 397.675781 420.007812 402.460938 413.742188 Z M 397.695312 354.789062 C 397.828125 354.761719 411.523438 352.082031 418.429688 363.308594 C 418.65625 363.667969 419.042969 363.875 419.4375 363.875 C 419.652344 363.875 419.859375 363.820312 420.058594 363.695312 C 420.617188 363.355469 420.796875 362.625 420.445312 362.070312 C 412.675781 349.429688 397.363281 352.433594 397.210938 352.460938 C 396.570312 352.59375 396.15625 353.222656 396.285156 353.863281 C 396.425781 354.5 397.054688 354.914062 397.695312 354.789062 Z M 375.449219 347.335938 C 375.699219 347.191406 381.644531 343.984375 386.167969 351.769531 C 386.390625 352.144531 386.789062 352.363281 387.191406 352.363281 C 387.398438 352.363281 387.597656 352.308594 387.785156 352.199219 C 388.351562 351.867188 388.542969 351.148438 388.21875 350.582031 C 382.542969 340.8125 374.378906 345.226562 374.296875 345.277344 C 373.722656 345.601562 373.523438 346.320312 373.839844 346.898438 C 374.152344 347.445312 374.882812 347.652344 375.449219 347.335938 Z M 413.546875 454.253906 C 412.683594 451.386719 405.816406 451.960938 393.785156 451.675781 L 397.765625 462.585938 C 403.710938 460.429688 414.167969 456.3125 413.546875 454.253906 Z M 435.605469 480.941406 C 434.660156 481.949219 426.378906 490.917969 426.695312 496.140625 C 426.992188 501.183594 434.507812 516.832031 434.832031 517.488281 C 435.039062 517.910156 435.460938 518.160156 435.902344 518.160156 C 436.074219 518.160156 436.253906 518.125 436.414062 518.046875 C 437.007812 517.757812 437.25 517.054688 436.964844 516.464844 C 434.839844 512.058594 429.285156 499.808594 429.058594 496.003906 C 428.851562 492.4375 434.957031 485.09375 437.332031 482.566406 C 437.78125 482.089844 437.753906 481.34375 437.277344 480.894531 C 436.800781 480.4375 436.046875 480.457031 435.605469 480.941406 Z M 418.726562 498.441406 C 418.082031 494.78125 421.730469 487.007812 423.1875 484.320312 C 423.503906 483.746094 423.285156 483.027344 422.710938 482.710938 C 422.136719 482.398438 421.417969 482.613281 421.101562 483.1875 C 420.867188 483.609375 415.472656 493.632812 416.390625 498.855469 C 417.269531 503.84375 425.328125 519.707031 425.667969 520.382812 C 425.875 520.796875 426.300781 521.03125 426.730469 521.03125 C 426.910156 521.03125 427.097656 520.984375 427.269531 520.902344 C 427.855469 520.605469 428.089844 519.898438 427.792969 519.3125 C 427.703125 519.132812 419.546875 503.078125 418.726562 498.441406 Z M 409.644531 499.105469 C 409.179688 494.316406 412.039062 487.125 412.0625 487.054688 C 412.308594 486.449219 412.011719 485.757812 411.40625 485.515625 C 410.804688 485.273438 410.113281 485.570312 409.871094 486.171875 C 409.746094 486.488281 406.769531 493.964844 407.289062 499.339844 C 407.800781 504.625 418.242188 520.679688 419.4375 522.496094 C 419.664062 522.84375 420.039062 523.023438 420.425781 523.023438 C 420.652344 523.023438 420.875 522.960938 421.074219 522.828125 C 421.621094 522.46875 421.777344 521.730469 421.417969 521.191406 C 418.269531 516.398438 410.03125 503.089844 409.644531 499.105469 Z M 288.558594 281.324219 C 288.773438 281.136719 288.917969 280.875 288.953125 280.589844 L 294.683594 238.207031 C 294.773438 237.5625 294.3125 236.960938 293.664062 236.878906 C 293.558594 236.859375 293.449219 236.886719 293.34375 236.894531 L 293.800781 233.75 C 293.800781 233.75 297.523438 211.414062 282.34375 187.359375 C 270.304688 168.289062 248.011719 170.644531 239.289062 172.429688 C 240.792969 169.824219 241.664062 166.8125 241.664062 163.597656 C 241.65625 153.789062 233.707031 145.84375 223.894531 145.84375 C 214.085938 145.84375 206.136719 153.789062 206.136719 163.597656 C 206.136719 168.242188 207.933594 172.46875 210.867188 175.632812 C 190.246094 182.453125 182.875 200.988281 180.070312 212.851562 C 176.347656 228.601562 177.6875 239.863281 177.6875 239.863281 C 181.597656 233.371094 186.949219 232.320312 186.949219 232.320312 L 187.785156 249.964844 C 186.785156 249.910156 185.742188 250.15625 184.65625 250.746094 C 183.25 251.511719 181.238281 253.074219 179.367188 254.628906 C 179.339844 254.628906 179.3125 254.621094 179.277344 254.628906 C 178.808594 254.710938 178.46875 255.0625 178.351562 255.492188 C 176.347656 257.210938 174.710938 258.71875 174.574219 258.847656 C 174.296875 259.105469 174.152344 259.492188 174.207031 259.871094 L 178.601562 292.328125 C 178.691406 292.976562 179.285156 293.425781 179.933594 293.34375 C 180.582031 293.253906 181.039062 292.660156 180.949219 292.011719 L 176.644531 260.175781 C 177.09375 259.773438 177.839844 259.089844 178.738281 258.308594 L 184.914062 292.667969 C 185.015625 293.246094 185.519531 293.648438 186.085938 293.648438 C 186.15625 293.648438 186.226562 293.640625 186.292969 293.632812 C 186.9375 293.515625 187.359375 292.902344 187.246094 292.257812 L 180.824219 256.519531 C 182.039062 255.503906 183.304688 254.496094 184.394531 253.730469 C 185.597656 259.746094 189.816406 280.273438 192.964844 290.621094 C 193.117188 291.132812 193.59375 291.457031 194.097656 291.457031 C 194.214844 291.457031 194.328125 291.4375 194.445312 291.402344 C 195.078125 291.214844 195.425781 290.546875 195.238281 289.917969 C 191.964844 279.179688 187.515625 257.226562 186.570312 252.492188 C 187.207031 252.277344 187.785156 252.25 188.304688 252.445312 C 189.332031 252.824219 190.257812 254.027344 190.992188 255.941406 C 192.386719 259.566406 200.039062 288.464844 200.121094 288.75 C 200.164062 288.929688 200.253906 289.101562 200.382812 289.234375 C 200.480469 289.34375 210.210938 300.230469 219.535156 311.816406 C 228.445312 322.886719 228.167969 329.46875 228.160156 329.59375 C 228.105469 330.242188 228.589844 330.808594 229.246094 330.863281 C 229.28125 330.863281 229.308594 330.863281 229.34375 330.863281 C 229.957031 330.863281 230.476562 330.394531 230.523438 329.773438 C 230.542969 329.601562 230.695312 327.113281 228.96875 322.746094 C 242.832031 338.679688 256.277344 319.078125 256.277344 319.078125 C 245.433594 326.304688 231.960938 321.980469 227.953125 320.425781 C 226.59375 317.613281 224.535156 314.222656 221.386719 310.3125 C 212.746094 299.582031 203.753906 289.441406 202.34375 287.859375 C 201.621094 285.136719 196.378906 265.425781 194.070312 257.742188 C 194.097656 257.777344 194.105469 257.792969 194.105469 257.792969 L 210.433594 225.4375 C 229.058594 214.261719 243.382812 193.933594 243.382812 193.933594 C 256.84375 211.117188 284.0625 229.722656 284.0625 229.722656 L 289.941406 255.628906 L 286.667969 279.808594 C 284.546875 281.667969 272.820312 291.96875 264.027344 300.757812 C 253.992188 310.789062 256.140625 329.304688 256.242188 330.089844 C 256.3125 330.691406 256.824219 331.132812 257.417969 331.132812 C 257.464844 331.132812 257.515625 331.132812 257.5625 331.121094 C 258.210938 331.042969 258.675781 330.449219 258.597656 329.800781 C 258.578125 329.621094 256.492188 311.636719 265.710938 302.429688 C 275.304688 292.867188 288.433594 281.441406 288.558594 281.324219 Z M 225.21875 277.75 C 226.070312 277.238281 227.195312 277.425781 228.375 278.253906 C 236.296875 283.824219 246.878906 284.453125 247.328125 284.480469 C 247.96875 284.515625 248.542969 284.015625 248.578125 283.367188 C 248.617188 282.710938 248.113281 282.152344 247.464844 282.117188 C 247.367188 282.109375 237.105469 281.488281 229.75 276.320312 C 227.78125 274.933594 225.695312 274.71875 224.011719 275.71875 C 222.042969 276.886719 221.046875 279.484375 221.394531 282.484375 C 221.691406 284.992188 223.816406 293.523438 238.742188 298.179688 C 238.859375 298.214844 238.976562 298.234375 239.09375 298.234375 C 239.597656 298.234375 240.0625 297.910156 240.226562 297.398438 C 240.421875 296.769531 240.074219 296.113281 239.441406 295.914062 C 228.660156 292.542969 224.265625 286.621094 223.742188 282.199219 C 223.5 280.175781 224.074219 278.421875 225.21875 277.75 Z M 248.183594 267.4375 C 247.3125 264.824219 246.125 261.238281 245.109375 256.417969 C 243.140625 247.082031 245.136719 244.832031 245.253906 244.707031 C 245.738281 244.320312 245.855469 243.609375 245.484375 243.097656 C 245.109375 242.558594 244.371094 242.433594 243.832031 242.8125 C 243.246094 243.222656 240.441406 245.820312 242.78125 256.914062 C 243.824219 261.855469 245.035156 265.515625 245.925781 268.195312 C 246.617188 270.269531 247.328125 272.417969 247.085938 273.011719 C 246.140625 273.074219 243.050781 271.3125 240.378906 269.199219 C 239.867188 268.796875 239.121094 268.878906 238.714844 269.398438 C 238.308594 269.910156 238.390625 270.65625 238.914062 271.0625 C 241.601562 273.183594 244.890625 275.367188 247.113281 275.367188 C 247.824219 275.367188 248.433594 275.140625 248.867188 274.621094 C 250.082031 273.15625 249.40625 271.125 248.183594 267.4375 Z M 269.835938 233.527344 C 270.0625 233.707031 270.320312 233.796875 270.59375 233.796875 C 270.933594 233.796875 271.273438 233.652344 271.507812 233.363281 C 271.921875 232.859375 271.859375 232.113281 271.355469 231.691406 C 260.726562 222.890625 250.214844 230.722656 250.109375 230.800781 C 249.585938 231.199219 249.488281 231.945312 249.882812 232.464844 C 250.277344 232.988281 251.023438 233.085938 251.546875 232.691406 C 251.914062 232.421875 260.683594 225.941406 269.835938 233.527344 Z M 237.1875 232.671875 C 237.410156 232.851562 237.671875 232.941406 237.941406 232.941406 C 238.285156 232.941406 238.625 232.796875 238.859375 232.511719 C 239.273438 232.007812 239.199219 231.261719 238.695312 230.839844 C 227.394531 221.535156 217.207031 230.144531 217.105469 230.226562 C 216.613281 230.660156 216.558594 231.40625 216.988281 231.898438 C 217.421875 232.394531 218.167969 232.445312 218.664062 232.015625 C 218.679688 231.996094 220.839844 230.15625 224.210938 229.292969 C 228.707031 228.152344 233.078125 229.28125 237.1875 232.671875 Z M 214.507812 510.164062 C 213.859375 510.082031 213.257812 510.53125 213.175781 511.179688 L 208.808594 543.933594 L 178.1875 529.363281 C 177.605469 529.082031 176.894531 529.335938 176.605469 529.917969 C 176.328125 530.511719 176.578125 531.214844 177.164062 531.5 L 209.246094 546.773438 C 209.410156 546.84375 209.582031 546.890625 209.761719 546.890625 C 209.957031 546.890625 210.148438 546.84375 210.328125 546.746094 C 210.660156 546.566406 210.882812 546.234375 210.9375 545.855469 L 215.523438 511.492188 C 215.613281 510.84375 215.15625 510.253906 214.507812 510.164062 Z M 237.285156 500.238281 C 236.765625 499.84375 236.015625 499.953125 235.621094 500.472656 C 235.226562 500.996094 235.332031 501.742188 235.855469 502.136719 L 255.71875 517.03125 C 255.933594 517.191406 256.1875 517.261719 256.429688 517.261719 C 256.789062 517.261719 257.148438 517.101562 257.382812 516.785156 C 257.777344 516.265625 257.671875 515.519531 257.148438 515.125 Z M 192.386719 468.976562 C 203.871094 467.0625 212.199219 463.316406 212.546875 463.160156 C 213.140625 462.890625 213.410156 462.191406 213.140625 461.589844 C 212.871094 460.996094 212.160156 460.726562 211.566406 461.003906 C 211.488281 461.039062 203.179688 464.78125 192 466.640625 C 188.332031 467.25 187.117188 468.726562 186.757812 469.859375 C 186.335938 471.160156 186.804688 472.589844 188.082031 473.875 C 190.472656 476.292969 195.347656 478.066406 201.289062 478.066406 C 204.273438 478.066406 207.539062 477.617188 210.882812 476.574219 C 211.515625 476.375 211.855469 475.710938 211.667969 475.089844 C 211.46875 474.460938 210.804688 474.117188 210.183594 474.308594 C 200.515625 477.320312 192.421875 474.890625 189.769531 472.203125 C 189.160156 471.585938 188.878906 470.992188 189.015625 470.585938 C 189.1875 470.054688 190.167969 469.355469 192.386719 468.976562 Z M 180.859375 426.363281 C 180.527344 426.929688 180.714844 427.65625 181.28125 427.980469 C 181.480469 428.097656 201.503906 439.828125 208.214844 445.789062 C 209.597656 447.019531 209.410156 447.800781 209.335938 448.0625 C 208.699219 450.695312 201.8125 453.375 197.628906 454.441406 C 196.992188 454.605469 196.613281 455.253906 196.777344 455.882812 C 196.910156 456.410156 197.394531 456.769531 197.925781 456.769531 C 198.027344 456.769531 198.125 456.761719 198.222656 456.734375 C 199.472656 456.421875 210.472656 453.480469 211.648438 448.617188 C 211.917969 447.511719 211.8125 445.8125 209.796875 444.015625 C 202.910156 437.894531 183.316406 426.417969 182.488281 425.933594 C 181.910156 425.597656 181.183594 425.796875 180.859375 426.363281 Z M 211.316406 419.730469 C 208.195312 418.605469 205.398438 418.667969 203 419.925781 C 198.925781 422.050781 197.59375 426.832031 197.539062 427.027344 C 197.371094 427.65625 197.746094 428.304688 198.375 428.476562 C 198.484375 428.503906 198.582031 428.519531 198.691406 428.519531 C 199.210938 428.519531 199.6875 428.171875 199.832031 427.648438 C 199.84375 427.605469 200.957031 423.648438 204.113281 422.023438 C 205.894531 421.097656 208.050781 421.078125 210.515625 421.957031 C 211.128906 422.183594 211.8125 421.859375 212.035156 421.25 C 212.25 420.636719 211.925781 419.953125 211.316406 419.730469 Z M 179.980469 437.554688 C 180.140625 436.914062 179.753906 436.277344 179.117188 436.117188 C 171.011719 434.085938 166.652344 440.492188 165.472656 444.160156 C 165.277344 444.78125 165.617188 445.445312 166.238281 445.644531 C 166.355469 445.679688 166.480469 445.699219 166.597656 445.699219 C 167.101562 445.699219 167.5625 445.375 167.722656 444.878906 C 167.839844 444.527344 170.574219 436.429688 178.53125 438.40625 C 179.167969 438.578125 179.816406 438.191406 179.980469 437.554688 Z M 166.480469 416.3125 C 150.710938 415.082031 145.144531 427.136719 144.414062 433.699219 C 144.34375 434.34375 144.8125 434.929688 145.457031 435.011719 C 145.503906 435.019531 145.546875 435.019531 145.59375 435.019531 C 146.1875 435.019531 146.699219 434.570312 146.769531 433.96875 C 146.851562 433.285156 148.894531 417.3125 166.292969 418.6875 C 166.949219 418.730469 167.515625 418.246094 167.570312 417.601562 C 167.625 416.945312 167.128906 416.367188 166.480469 416.3125 Z M 194.265625 394.859375 C 182.773438 393.214844 178.144531 404.648438 178.097656 404.765625 C 177.855469 405.375 178.164062 406.058594 178.765625 406.300781 C 178.910156 406.355469 179.050781 406.382812 179.195312 406.382812 C 179.664062 406.382812 180.113281 406.09375 180.300781 405.636719 C 180.464844 405.230469 184.3125 395.839844 193.925781 397.214844 C 194.574219 397.304688 195.175781 396.855469 195.265625 396.207031 C 195.375 395.550781 194.914062 394.949219 194.265625 394.859375 Z M 297.261719 434.777344 C 297.15625 434.128906 296.542969 433.699219 295.894531 433.804688 C 295.25 433.914062 294.816406 434.535156 294.925781 435.171875 C 294.941406 435.28125 296.847656 446.328125 297.980469 452.007812 C 298.144531 452.796875 298.289062 454.183594 297.515625 454.558594 C 296.488281 455.054688 294.296875 454.226562 293.171875 452.914062 C 291.390625 450.839844 286.921875 440.324219 285.347656 436.4375 C 285.105469 435.835938 284.414062 435.539062 283.800781 435.785156 C 283.199219 436.027344 282.902344 436.71875 283.144531 437.328125 C 283.71875 438.742188 288.648438 450.8125 291.101562 454.109375 C 291.273438 456.367188 290.652344 457.894531 289.359375 458.300781 C 288.136719 458.6875 286.273438 457.992188 285.285156 456.179688 C 283.40625 452.734375 282.039062 448.988281 281.660156 447.910156 C 282.660156 443.917969 280.664062 442.578125 280.015625 442.265625 C 278.117188 441.339844 275.589844 442.425781 273.738281 444.976562 C 270.71875 449.140625 266.132812 455.621094 266.085938 455.683594 C 265.710938 456.214844 265.835938 456.960938 266.375 457.335938 C 266.90625 457.714844 267.652344 457.589844 268.027344 457.050781 C 268.074219 456.988281 272.640625 450.515625 275.65625 446.371094 C 276.90625 444.644531 278.308594 444.070312 278.972656 444.394531 C 279.511719 444.65625 279.816406 445.761719 279.289062 447.640625 C 277.804688 452.84375 273.28125 463.035156 273.234375 463.136719 C 272.984375 463.710938 273.21875 464.382812 273.785156 464.671875 L 291.742188 473.832031 C 291.914062 473.921875 292.101562 473.957031 292.28125 473.957031 C 292.710938 473.957031 293.125 473.722656 293.34375 473.308594 C 293.636719 472.726562 293.40625 472.015625 292.828125 471.71875 L 275.871094 463.0625 C 276.816406 460.898438 279.007812 455.773438 280.519531 451.53125 C 281.195312 453.183594 282.109375 455.277344 283.226562 457.308594 C 284.394531 459.449219 286.570312 460.769531 288.675781 460.769531 C 289.152344 460.769531 289.628906 460.699219 290.085938 460.554688 C 291.949219 459.980469 293.117188 458.371094 293.441406 456.097656 C 294.492188 456.691406 295.679688 457.066406 296.792969 457.066406 C 297.425781 457.066406 298.027344 456.949219 298.566406 456.691406 C 299.519531 456.222656 301.003906 454.945312 300.328125 451.539062 C 299.179688 445.894531 297.28125 434.882812 297.261719 434.777344 Z M 126.558594 480.265625 C 127.726562 483.25 129.039062 486.613281 135.378906 486.613281 C 135.855469 486.613281 136.367188 486.59375 136.898438 486.550781 C 137.554688 486.503906 138.039062 485.929688 137.996094 485.28125 C 137.949219 484.625 137.363281 484.132812 136.726562 484.1875 C 130.808594 484.617188 129.957031 482.433594 128.769531 479.394531 C 128.128906 477.75 127.402344 475.890625 125.71875 474.523438 C 121.457031 471.035156 115.046875 468.007812 114.777344 467.878906 C 114.183594 467.601562 113.480469 467.855469 113.203125 468.445312 C 112.925781 469.039062 113.175781 469.742188 113.769531 470.019531 C 113.832031 470.046875 120.179688 473.058594 124.21875 476.355469 C 125.414062 477.34375 125.964844 478.765625 126.558594 480.265625 Z M 202.214844 394.824219 C 201.765625 394.355469 201.011719 394.335938 200.542969 394.785156 C 200.074219 395.246094 200.058594 395.992188 200.515625 396.457031 C 200.617188 396.558594 210.417969 406.804688 217.511719 420.242188 C 217.726562 420.648438 218.132812 420.871094 218.5625 420.871094 C 218.753906 420.871094 218.941406 420.828125 219.113281 420.738281 C 219.6875 420.429688 219.914062 419.710938 219.605469 419.136719 C 212.351562 405.410156 202.316406 394.929688 202.214844 394.824219 Z M 202.214844 394.824219"/></g></svg>