<svg xmlns="http://www.w3.org/2000/svg" width="375" viewBox="0 0 375 375" height="375" version="1.0"><defs><clipPath id="a"><path d="M 112.5 112.5 L 262.5 112.5 L 262.5 262.5 L 112.5 262.5 Z M 112.5 112.5"/></clipPath></defs><path fill="#100F0D" d="M 185.78125 163.730469 L 185.875 163.847656 L 185.941406 163.730469 L 186.089844 163.609375 L 186.289062 163.648438 L 186.300781 163.769531 L 186.234375 163.96875 L 186.261719 164.101562 L 186.289062 164.261719 L 186.25 164.460938 L 186.289062 164.648438 L 186.394531 164.636719 L 186.59375 164.609375 L 186.753906 164.582031 L 186.96875 164.542969 L 187.195312 164.476562 L 187.207031 164.570312 L 187.195312 164.660156 L 187.152344 164.875 L 187.207031 164.996094 L 187.351562 164.941406 L 187.59375 164.96875 L 187.605469 165.101562 L 187.59375 165.261719 L 187.621094 165.421875 L 187.511719 165.527344 L 187.339844 165.714844 L 187.21875 165.726562 L 186.980469 165.671875 L 186.859375 165.660156 L 186.726562 165.671875 L 186.820312 165.925781 L 186.859375 166.113281 L 186.847656 166.207031 L 186.726562 166.328125 L 186.808594 166.417969 L 186.941406 166.394531 L 187.046875 166.539062 L 186.992188 166.644531 L 186.886719 166.726562 L 186.742188 166.871094 L 186.542969 167.003906 L 186.527344 167.097656 L 186.542969 167.257812 L 186.632812 167.417969 L 186.765625 167.457031 L 186.78125 167.324219 L 186.96875 167.230469 L 187.128906 167.429688 L 187.285156 167.40625 L 187.433594 167.351562 L 187.554688 167.296875 L 187.699219 167.246094 L 187.925781 167.21875 L 187.953125 167.363281 L 187.871094 167.484375 L 187.660156 167.523438 L 187.527344 167.539062 L 187.339844 167.589844 L 187.207031 167.617188 L 187.085938 167.644531 L 186.953125 167.777344 L 186.875 167.925781 L 186.808594 168.070312 L 186.753906 168.230469 L 186.714844 168.335938 L 186.59375 168.457031 L 186.488281 168.523438 L 186.472656 168.722656 L 186.542969 168.84375 L 186.808594 168.777344 L 186.859375 168.671875 L 186.925781 168.457031 L 186.992188 168.351562 L 187.128906 168.308594 L 187.300781 168.378906 L 187.394531 168.363281 L 187.527344 168.351562 L 187.671875 168.324219 L 187.699219 168.109375 L 187.792969 168.042969 L 188.058594 168.058594 L 188.21875 168.070312 L 188.351562 168.058594 L 188.457031 167.9375 L 188.605469 167.792969 L 188.683594 167.738281 L 188.816406 167.722656 L 188.976562 167.738281 L 189.085938 167.722656 L 189.164062 167.710938 L 189.445312 167.722656 L 189.617188 167.710938 L 189.75 167.683594 L 189.871094 167.566406 L 190.015625 167.539062 L 190.164062 167.457031 L 190.242188 167.378906 L 190.257812 167.230469 L 190.191406 167.164062 L 190.03125 167.179688 L 189.882812 167.136719 L 189.898438 166.980469 L 189.910156 166.871094 L 189.910156 166.710938 L 190.015625 166.699219 L 190.148438 166.671875 L 190.257812 166.632812 L 190.363281 166.539062 L 190.402344 166.417969 L 190.417969 166.3125 L 190.402344 166.234375 L 190.417969 165.886719 L 190.230469 165.753906 L 190.082031 165.753906 L 189.898438 165.78125 L 189.777344 165.886719 L 189.671875 166.074219 L 189.578125 165.980469 L 189.445312 165.875 L 189.457031 165.6875 L 189.417969 165.460938 L 189.257812 165.328125 L 189.445312 165.273438 L 189.351562 165.113281 L 189.257812 165.074219 L 189.136719 164.980469 L 188.976562 164.980469 L 188.925781 164.863281 L 188.84375 164.742188 L 188.511719 164.476562 L 188.285156 164.476562 L 188.21875 164.394531 L 188.164062 164.261719 L 188.140625 164.101562 L 188.058594 163.996094 L 187.914062 163.714844 L 187.714844 163.714844 L 187.671875 163.636719 L 187.59375 163.515625 L 187.460938 163.503906 L 187.351562 163.488281 L 187.339844 163.34375 L 187.378906 163.222656 L 187.367188 162.957031 L 187.367188 162.863281 L 187.445312 162.785156 L 187.527344 162.652344 L 187.644531 162.570312 L 187.605469 162.410156 L 187.621094 162.34375 L 187.621094 162.210938 L 187.605469 162.15625 L 187.605469 162.117188 L 187.511719 161.945312 L 187.351562 161.933594 L 187.21875 161.945312 L 187.128906 161.957031 L 186.886719 162.066406 L 186.753906 162.078125 L 186.582031 162.117188 L 186.433594 162.105469 L 186.40625 161.945312 L 186.421875 161.746094 L 186.566406 161.664062 L 186.542969 161.546875 L 186.714844 161.398438 L 186.726562 161.121094 L 186.699219 161.027344 L 186.542969 160.984375 L 186.339844 161.054688 L 186.167969 161.199219 L 186.089844 161.210938 L 185.996094 161.144531 L 185.875 161.160156 L 185.902344 161.277344 L 185.875 161.386719 L 185.769531 161.558594 L 185.742188 161.707031 L 185.769531 161.878906 L 185.714844 162.011719 L 185.570312 162.078125 L 185.582031 162.238281 L 185.542969 162.332031 L 185.582031 162.503906 L 185.59375 162.519531 L 185.648438 162.636719 L 185.636719 162.691406 L 185.621094 162.851562 L 185.582031 163.050781 L 185.730469 163.144531 L 185.742188 163.277344 L 185.886719 163.355469 L 185.808594 163.464844 L 185.753906 163.570312 L 185.78125 163.730469"/><path fill="#100F0D" d="M 185.4375 164.59375 L 185.394531 164.753906 L 185.183594 164.847656 L 185.210938 164.753906 L 185.234375 164.675781 L 185.234375 164.554688 L 185.117188 164.433594 L 184.941406 164.59375 L 184.785156 164.621094 L 184.664062 164.609375 L 184.558594 164.820312 L 184.542969 164.914062 L 184.582031 165.007812 L 184.609375 165.128906 L 184.476562 165.179688 L 184.371094 165.328125 L 184.332031 165.460938 L 184.171875 165.5 L 184.050781 165.515625 L 183.929688 165.566406 L 183.945312 165.660156 L 183.957031 165.742188 L 183.984375 165.992188 L 183.746094 166.074219 L 183.769531 166.257812 L 183.796875 166.378906 L 183.878906 166.484375 L 183.972656 166.460938 L 184.089844 166.445312 L 184.210938 166.351562 L 184.316406 166.246094 L 184.421875 166.328125 L 184.34375 166.394531 L 184.332031 166.511719 L 184.34375 166.59375 L 184.304688 166.726562 L 184.25 166.832031 L 184.128906 167.152344 L 184.039062 167.378906 L 183.835938 167.578125 L 183.957031 167.644531 L 184.011719 167.777344 L 184.117188 167.832031 L 184.128906 167.949219 L 184.222656 167.9375 L 184.316406 167.859375 L 184.464844 167.804688 L 184.570312 167.925781 L 184.714844 167.964844 L 184.890625 167.84375 L 184.996094 167.644531 L 185.089844 167.523438 L 185.195312 167.5 L 185.382812 167.472656 L 185.394531 167.363281 L 185.394531 167.179688 L 185.527344 167.164062 L 185.636719 167.046875 L 185.675781 166.820312 L 185.78125 166.671875 L 185.730469 166.566406 L 185.636719 166.394531 L 185.621094 166.207031 L 185.582031 166.074219 L 185.609375 165.953125 L 185.582031 165.820312 L 185.582031 165.660156 L 185.703125 165.515625 L 185.847656 165.421875 L 185.980469 165.3125 L 185.941406 165.222656 L 185.929688 165.128906 L 185.96875 164.953125 L 185.820312 164.808594 L 185.742188 164.742188 L 185.664062 164.648438 L 185.554688 164.570312 L 185.4375 164.59375"/><path fill="#100F0D" d="M 146.84375 195.984375 L 146.765625 196.074219 L 146.628906 196.277344 L 146.539062 196.476562 L 146.628906 196.609375 L 146.871094 196.542969 L 146.9375 196.476562 L 147.070312 196.195312 L 147.214844 195.996094 L 147.457031 195.890625 L 147.710938 195.808594 L 147.921875 195.96875 L 148.015625 196.128906 L 148.136719 196.050781 L 148.28125 196.007812 L 148.457031 196.117188 L 148.601562 196.035156 L 148.972656 196.328125 L 149.066406 196.527344 L 149.441406 196.460938 L 149.71875 196.449219 L 149.839844 196.621094 L 149.90625 196.847656 L 150.160156 196.886719 L 150.414062 196.941406 L 150.558594 197.101562 L 150.492188 197.394531 L 150.453125 197.554688 L 150.574219 197.582031 L 151.023438 197.460938 L 151.464844 197.273438 L 151.609375 197.222656 L 151.851562 197.222656 L 152.210938 197.195312 L 152.011719 196.796875 L 151.609375 196.820312 L 151.492188 196.769531 L 151.265625 196.367188 L 151 196.421875 L 150.640625 196.34375 L 150.558594 196.25 L 150.292969 196.140625 L 149.425781 195.96875 L 149.015625 195.714844 L 148.867188 195.582031 L 148.429688 195.554688 L 147.9375 195.609375 L 147.667969 195.503906 L 147.070312 195.730469 L 146.84375 195.984375"/><path fill="#100F0D" d="M 153.15625 198.339844 L 153.328125 198.300781 L 153.503906 198.273438 L 154.023438 198.285156 L 154.101562 198.417969 L 154.207031 198.339844 L 154.289062 198.179688 L 154.246094 197.941406 L 154.382812 197.992188 L 154.609375 198.046875 L 154.78125 197.992188 L 155.007812 197.832031 L 155.246094 197.765625 L 155.488281 197.726562 L 155.699219 197.660156 L 155.460938 197.355469 L 154.902344 197.3125 L 154.527344 197.128906 L 154.140625 197.035156 L 153.636719 197.140625 L 153.277344 197.289062 L 153.222656 197.765625 L 153.4375 197.875 L 153.476562 198.085938 L 153.300781 198.140625 L 153.195312 198.167969 L 152.824219 198.167969 L 152.625 198.058594 L 152.304688 198.046875 L 152.34375 198.3125 L 152.542969 198.417969 L 152.851562 198.378906 L 153.144531 198.339844 L 153.15625 198.339844"/><path fill="#100F0D" d="M 150.839844 199.03125 L 150.972656 198.914062 L 151.183594 198.777344 L 151.265625 198.644531 L 151.160156 198.5 L 151.039062 198.367188 L 150.199219 198.433594 L 150.09375 198.699219 L 150.386719 198.777344 L 150.558594 198.847656 L 150.691406 198.925781 L 150.839844 199.03125"/><path fill="#100F0D" d="M 210.777344 168.535156 L 210.992188 168.671875 L 211.070312 168.75 L 210.871094 169.003906 L 210.925781 169.136719 L 210.671875 169.203125 L 210.390625 169.308594 L 210.125 169.375 L 209.710938 169.441406 L 209.550781 169.375 L 209.378906 169.28125 L 209.351562 169.121094 L 209.179688 169.070312 L 209.046875 169.015625 L 208.964844 168.882812 L 208.78125 168.789062 L 209.3125 168.738281 L 209.472656 168.738281 L 209.660156 168.601562 L 209.804688 168.363281 L 210.046875 168.257812 L 210.472656 168.136719 L 210.589844 167.992188 L 210.804688 167.859375 L 210.898438 167.792969 L 211.042969 167.710938 L 211.058594 167.710938 L 211.257812 167.644531 L 211.457031 167.617188 L 211.601562 167.605469 L 211.628906 167.75 L 211.457031 167.859375 L 211.335938 168.058594 L 211.21875 168.152344 L 211.125 168.203125 L 211.082031 168.335938 L 211.070312 168.335938 L 210.964844 168.351562 L 210.75 168.402344 Z M 206.863281 173.4375 L 206.742188 173.636719 L 206.582031 173.609375 L 206.410156 173.558594 L 206.289062 173.625 L 206.011719 173.824219 L 205.835938 173.851562 L 205.945312 173.636719 L 206.355469 173.410156 L 206.421875 173.332031 L 206.515625 173.25 L 206.582031 173.023438 L 206.421875 172.996094 L 206.238281 172.972656 L 206.078125 172.878906 L 205.929688 172.679688 L 205.742188 172.371094 L 205.890625 172.027344 L 205.996094 171.679688 L 206.050781 171.574219 L 206.238281 171.398438 L 206.261719 171.375 L 206.222656 171.214844 L 206.144531 170.8125 L 206.25 170.640625 L 206.289062 170.535156 L 206.515625 170.441406 L 206.4375 170.109375 L 206.289062 169.910156 L 206.421875 169.722656 L 206.824219 169.28125 L 206.929688 169.121094 L 207.023438 168.828125 L 207.382812 168.777344 L 207.449219 168.75 L 207.554688 168.816406 L 207.582031 168.882812 L 207.703125 169.003906 L 208.101562 169.070312 L 208.421875 169.03125 L 208.6875 168.894531 L 208.714844 169.136719 L 208.605469 169.230469 L 208.300781 169.363281 L 208.234375 169.523438 L 208.152344 169.707031 L 208.328125 169.722656 L 208.699219 169.722656 L 208.78125 169.867188 L 208.78125 170.082031 L 208.726562 170.214844 L 208.847656 170.292969 L 209.058594 170.292969 L 209.3125 170.121094 L 209.925781 169.816406 L 210.046875 169.75 L 210.246094 169.722656 L 210.339844 169.523438 L 210.75 169.390625 L 210.84375 169.496094 L 210.925781 169.707031 L 211.125 169.773438 L 211.285156 169.855469 L 211.589844 170.042969 L 211.695312 170.121094 L 211.84375 170.242188 L 212.015625 170.402344 L 212.214844 170.546875 L 212.375 170.585938 L 212.761719 170.734375 L 213.054688 170.789062 L 213.214844 170.921875 L 213.359375 171.09375 L 213.414062 171.171875 L 213.441406 171.265625 L 213.453125 171.28125 L 213.46875 171.386719 L 213.441406 171.574219 L 213.347656 171.867188 L 213.160156 172.078125 L 213.042969 172.171875 L 212.800781 172.34375 L 212.65625 172.398438 L 212.480469 172.320312 L 212.390625 172.253906 L 212.390625 172.238281 L 212.28125 172.1875 L 212.214844 172.320312 L 212.082031 172.4375 L 211.46875 172.492188 L 211.21875 172.410156 L 211.070312 172.34375 L 211.003906 172.253906 L 210.789062 172.253906 L 210.671875 172.410156 L 210.511719 172.253906 L 210.363281 172.199219 L 210.203125 172.171875 L 209.992188 172.171875 L 209.980469 172 L 209.660156 172.011719 L 208.808594 172.066406 L 208.671875 172.265625 L 208.367188 172.492188 L 208.246094 172.613281 L 207.996094 172.746094 L 207.914062 172.878906 L 207.820312 172.984375 L 207.382812 173.144531 L 207.289062 173.050781 L 207.023438 173.078125 L 206.835938 173.144531 Z M 187.511719 240.632812 C 162.609375 240.632812 141.730469 223.535156 135.949219 200.429688 L 136.058594 200.484375 L 136.296875 200.777344 L 136.777344 201.015625 L 137.1875 201.214844 L 137.457031 201.28125 L 137.800781 201.441406 L 138.28125 201.667969 L 138.601562 201.695312 L 138.921875 201.761719 L 139.28125 201.976562 L 139.90625 202.015625 L 140.320312 202.121094 L 140.730469 201.882812 L 140.972656 201.707031 L 141.957031 201.667969 L 142.144531 201.65625 L 142.222656 201.640625 L 142.449219 201.867188 L 142.714844 201.960938 L 142.902344 202.375 L 143.355469 202.496094 L 143.78125 202.695312 L 143.96875 202.707031 L 144.59375 203.066406 L 144.941406 202.894531 L 145.257812 202.828125 L 145.84375 202.949219 L 145.910156 203.320312 L 146.21875 203.332031 L 146.523438 203.667969 L 146.710938 203.574219 L 146.804688 203.640625 L 146.921875 203.734375 L 146.9375 203.746094 L 147.285156 204 L 147.308594 204.1875 L 147.136719 204.265625 L 147.058594 204.597656 L 147.324219 205.078125 L 147.5625 205.039062 L 147.855469 205.171875 L 148.1875 205.371094 L 148.386719 205.796875 L 148.679688 205.902344 L 148.789062 205.929688 L 148.988281 206.011719 L 149.253906 205.929688 L 149.734375 206.289062 L 149.921875 206.328125 L 150.464844 206.117188 L 150.4375 205.929688 L 150.214844 205.71875 L 150.425781 205.492188 L 150.746094 205.4375 L 151.078125 205.585938 L 151.277344 205.625 L 151.371094 205.851562 L 151.425781 206.15625 L 151.53125 206.476562 L 151.851562 206.488281 L 151.972656 206.847656 L 152.023438 207.15625 L 152.078125 207.527344 L 152.144531 207.902344 L 152.050781 208.152344 L 152.050781 208.621094 L 152.332031 208.820312 L 152.011719 209.191406 L 151.8125 209.472656 L 151.652344 209.753906 L 151.71875 210.136719 L 151.425781 210.484375 L 151.238281 210.777344 L 151.011719 210.992188 L 151.265625 211.335938 L 151.210938 211.484375 L 151.132812 211.738281 L 151.132812 212.121094 L 151.039062 212.375 L 151.039062 212.761719 L 151.09375 213.148438 L 151.199219 213.441406 L 151.410156 213.480469 L 151.503906 213.71875 L 151.359375 214 L 151.132812 214.238281 L 151 214.625 L 151.117188 214.984375 L 151.226562 215.292969 L 151.519531 215.945312 L 151.878906 216.199219 L 152.238281 216.410156 L 152.515625 216.675781 L 152.691406 216.917969 L 153.035156 217.167969 L 153.460938 217.820312 L 153.503906 217.902344 L 153.582031 218.074219 L 153.648438 218.234375 L 153.929688 218.769531 L 154.632812 220.046875 L 155.167969 221.058594 L 155.367188 221.523438 L 155.765625 221.65625 L 156.125 221.910156 L 156.3125 222.058594 L 156.417969 222.125 L 156.5 222.148438 L 157.003906 222.296875 L 157.363281 222.550781 L 157.777344 222.695312 L 158.003906 222.855469 L 158.269531 223.054688 L 158.335938 223.269531 L 158.535156 223.894531 L 158.777344 224.308594 L 158.855469 224.8125 L 158.882812 225.371094 L 158.933594 226.132812 L 158.988281 226.4375 L 158.855469 226.902344 L 158.882812 227.171875 L 159.136719 227.890625 L 159.1875 228.261719 L 159.109375 228.554688 L 159.09375 228.59375 L 159.042969 228.730469 L 158.960938 228.863281 L 159.003906 229.113281 L 159.121094 229.472656 L 159.070312 230.378906 L 158.933594 230.78125 L 158.960938 230.871094 L 158.988281 231.074219 L 158.988281 231.085938 L 159.28125 231.351562 L 159.335938 231.671875 L 159.214844 232.175781 L 159.175781 232.324219 L 159.203125 232.390625 C 159.46875 232.550781 159.734375 232.710938 160 232.882812 C 162.382812 234.308594 164.863281 235.546875 167.429688 236.585938 L 167.445312 236.558594 L 167.523438 236.386719 L 167.550781 236.332031 L 167.792969 235.398438 L 167.671875 235.039062 L 167.390625 234.894531 L 167.351562 234.546875 L 167.351562 234.519531 L 167.164062 234.226562 L 166.738281 233.910156 L 166.417969 233.457031 L 166.460938 232.9375 L 166.671875 233.097656 L 166.871094 233.5625 L 167.207031 233.65625 L 167.429688 233.867188 L 167.75 233.882812 L 168.109375 233.761719 L 168.855469 233.65625 L 169.070312 233.28125 L 169.148438 233.125 L 169.496094 232.496094 L 169.589844 232.3125 L 169.65625 232.203125 L 169.722656 231.804688 L 169.707031 231.296875 L 170.082031 230.792969 L 170.1875 230.300781 L 170.226562 230.125 L 170.585938 230.6875 L 170.640625 230.78125 L 170.652344 230.738281 L 170.707031 230.539062 L 170.761719 230.3125 L 170.828125 229.859375 L 170.933594 229.328125 L 171.199219 229.023438 L 171.398438 228.6875 L 171.359375 228.4375 L 171.308594 228.074219 L 171.238281 227.636719 L 171.082031 226.957031 L 171.171875 226.691406 L 171.375 226.386719 L 171.53125 226.183594 L 171.839844 225.746094 L 172.277344 225.320312 L 172.410156 225.199219 L 172.464844 225.160156 L 172.929688 224.945312 L 173.078125 224.613281 L 173.425781 224.441406 L 174.0625 224.027344 L 174.503906 224.015625 L 174.597656 223.679688 L 174.582031 223.175781 L 174.769531 222.390625 L 175.0625 221.832031 L 175.273438 221.097656 L 175.234375 220.792969 L 175.300781 220.445312 L 175.316406 219.6875 L 175.183594 219.195312 L 175.234375 218.542969 L 175.25 218.433594 L 175.222656 218.367188 L 175.089844 217.820312 L 175.261719 216.835938 L 175.5 216.796875 L 175.566406 216.785156 L 175.703125 216.316406 L 175.753906 215.945312 L 175.835938 215.546875 L 176.140625 215.050781 L 176.632812 214.53125 L 176.671875 214.027344 L 176.6875 214.011719 L 176.714844 213.828125 L 176.820312 213.292969 L 176.660156 212.242188 L 176.300781 211.910156 L 176.140625 211.351562 L 175.726562 211.230469 L 175.25 211.375 L 174.742188 210.9375 L 174.078125 210.339844 L 173.449219 210.246094 L 173.425781 210.246094 L 173.265625 210.273438 L 172.929688 210.3125 L 172.265625 210.164062 L 171.679688 210.070312 L 171.558594 210.472656 L 171.199219 210.191406 L 170.652344 209.644531 L 170.1875 209.460938 L 169.65625 209.300781 L 168.964844 209.324219 L 168.644531 209.710938 L 168.550781 209.140625 L 168.269531 208.941406 L 167.859375 209.125 L 167.5 209.753906 L 167.550781 210.058594 L 167.285156 210.03125 L 166.992188 210.203125 L 166.9375 209.777344 L 167.019531 209.179688 L 167.578125 208.980469 L 167.589844 208.660156 L 167.550781 208.339844 L 167.246094 208.0625 L 167.378906 207.675781 L 167.085938 207.527344 L 166.953125 206.96875 L 166.527344 206.289062 L 166.085938 205.902344 L 165.582031 205.53125 L 164.835938 205.265625 L 164.554688 205.105469 L 163.34375 205.359375 L 163.15625 205.382812 L 163.144531 205.382812 L 162.769531 205.066406 L 162.449219 204.984375 L 162.089844 205.171875 L 162.039062 204.796875 L 162.023438 204.414062 L 161.890625 204.253906 L 161.226562 203.972656 C 161.226562 203.972656 160.785156 204.160156 160.707031 203.984375 C 160.613281 203.800781 160.667969 203.734375 160.667969 203.734375 L 160.691406 203.480469 L 160.414062 203.332031 L 160.082031 203.171875 L 159.734375 202.988281 L 159.734375 202.8125 L 159.722656 202.640625 L 159.722656 202.535156 L 159.480469 202.640625 L 159.109375 202.800781 L 158.761719 202.949219 L 158.628906 203.28125 L 158.109375 203.308594 L 157.84375 203.160156 L 157.390625 203.214844 L 157.03125 203.265625 L 156.566406 203.535156 L 156.390625 203.242188 L 156.046875 203.039062 L 155.632812 202.855469 L 155.300781 202.773438 L 155.351562 203.082031 L 155.058594 203.320312 L 154.78125 203.558594 L 154.820312 203.800781 L 154.832031 203.917969 L 154.859375 203.972656 L 155.074219 204.265625 L 155.035156 204.503906 L 155.019531 204.652344 L 154.902344 204.679688 L 154.765625 204.691406 L 154.527344 204.359375 L 154.460938 203.917969 L 154.460938 203.535156 L 154.339844 203.160156 L 154.394531 203.066406 L 154.527344 202.828125 L 154.632812 202.613281 L 154.460938 202.640625 L 154.273438 202.667969 L 154.261719 202.679688 L 154.113281 202.894531 L 153.886719 203.105469 L 153.59375 203.347656 L 153.355469 203.453125 L 152.769531 203.785156 L 152.625 204.066406 L 152.558594 204.453125 L 152.675781 204.824219 L 152.238281 205.71875 L 151.386719 205.039062 L 150.945312 204.652344 L 150.464844 204.851562 L 150.132812 205.222656 L 149.71875 205.410156 L 149.175781 205.449219 L 148.695312 204.984375 L 148.429688 204.613281 L 148.136719 204.1875 L 147.921875 203.640625 L 147.921875 201.617188 L 147.761719 201.296875 L 147.363281 201.136719 L 147.214844 201.070312 L 147.148438 201.070312 L 146.324219 201.082031 L 145.898438 201.214844 L 145.550781 201.324219 L 145.257812 201.414062 L 145.164062 201.441406 L 144.714844 201.402344 L 144.726562 201.308594 L 144.753906 201.164062 L 144.925781 200.21875 L 144.886719 199.589844 L 145.207031 199.152344 L 145.019531 197.140625 L 144.527344 197.222656 L 143.925781 197.449219 L 143.582031 197.753906 L 143.40625 198.21875 L 143.460938 198.660156 L 143.25 199.257812 L 142.902344 199.511719 L 142.527344 199.617188 L 142.234375 199.792969 L 142.050781 200.152344 L 141.757812 200.269531 L 141.570312 200.335938 L 141.265625 200.390625 L 141.183594 200.402344 L 141.171875 200.363281 L 141.089844 200.175781 L 141.089844 200.164062 L 140.558594 199.9375 L 139.28125 198.339844 L 139.171875 197.726562 L 139.09375 197.15625 L 138.839844 196.183594 L 138.933594 195.664062 L 139.148438 195.371094 L 139.082031 194.929688 L 138.8125 194.34375 L 138.800781 193.824219 L 139.027344 193.292969 L 139.625 192.945312 L 139.667969 192.558594 L 139.933594 192.132812 L 140.027344 192.09375 L 140.210938 192.027344 L 140.410156 191.933594 L 140.890625 191.734375 L 141.316406 191.667969 L 141.902344 191.707031 L 142.089844 192.054688 L 142.371094 191.828125 L 142.890625 191.867188 L 143.113281 191.65625 L 142.996094 191.347656 L 142.996094 190.910156 L 143.5 190.828125 L 144.046875 190.75 L 144.40625 190.574219 L 144.820312 190.816406 L 145.191406 190.882812 L 145.21875 190.882812 L 145.378906 190.867188 L 145.59375 190.828125 L 145.820312 190.734375 L 146.125 190.949219 L 146.429688 191.269531 L 146.605469 191.5625 L 146.910156 192.347656 L 146.964844 192.71875 L 147.269531 192.8125 L 147.308594 193.132812 L 147.644531 193.4375 L 147.921875 193.984375 L 148.175781 193.945312 L 148.253906 193.730469 L 148.347656 193.398438 L 148.253906 192.839844 L 148.027344 192.242188 L 147.75 191.65625 L 147.683594 191.160156 L 147.375 190.816406 L 147.308594 190.375 L 147.335938 189.804688 L 147.375 189.164062 L 147.734375 188.605469 L 147.949219 188.3125 L 148.707031 187.488281 L 149.027344 187.058594 L 149.347656 186.699219 L 149.386719 186.5 L 149.773438 186.113281 L 149.574219 185.648438 L 149.402344 185.355469 L 148.988281 185.101562 L 148.921875 184.714844 L 148.734375 184.371094 L 148.75 184.050781 L 148.695312 183.679688 L 148.761719 183.53125 L 148.816406 183.371094 L 148.921875 183.066406 L 149.375 183.066406 L 149.160156 183.34375 L 149.148438 183.410156 L 149.09375 183.570312 L 149.066406 183.613281 L 149.132812 184.050781 L 149.347656 184.210938 L 149.695312 184.355469 L 149.828125 183.945312 L 149.921875 183.664062 L 149.945312 183.558594 L 149.921875 183.503906 L 149.707031 183.210938 L 149.878906 183.050781 L 150.171875 182.945312 L 150.332031 182.664062 L 150.359375 182.398438 L 150.371094 182.214844 L 150.371094 182.148438 L 150.824219 181.761719 L 150.4375 181.761719 L 150.757812 181.335938 L 151 181.226562 L 151.09375 181.1875 L 151.277344 181.09375 L 151.597656 180.949219 L 151.902344 180.894531 L 151.929688 180.640625 L 151.824219 180.402344 L 151.824219 179.960938 L 151.757812 179.511719 L 152.078125 179.148438 L 152.449219 179.03125 L 152.78125 178.738281 L 153.117188 178.871094 L 153.34375 178.699219 L 153.4375 178.429688 L 153.367188 178.003906 L 153.863281 177.859375 L 154.15625 177.753906 L 154.339844 177.605469 L 154.421875 177.390625 L 154.648438 177.167969 L 154.820312 177.527344 L 155.140625 177.539062 L 155.300781 177.710938 L 154.582031 177.953125 L 154.289062 178.191406 L 153.996094 178.484375 L 154.128906 178.84375 L 154.339844 179.003906 L 154.699219 179.203125 L 155.007812 179.148438 L 155.285156 178.855469 L 155.367188 178.523438 L 155.621094 178.113281 L 155.980469 177.992188 L 156.207031 177.820312 L 156.566406 177.257812 L 156.058594 177.207031 L 155.554688 177.285156 L 155.167969 176.964844 L 154.953125 176.738281 L 154.699219 176.273438 L 154.433594 175.875 L 153.78125 175.714844 L 153.796875 175.410156 L 154.046875 175.421875 L 154.421875 174.929688 L 154.460938 174.730469 L 154.367188 174.476562 L 154.128906 174.195312 L 153.6875 174.261719 L 152.984375 174.636719 L 152.597656 175.007812 L 152.039062 175.488281 L 151.664062 176.046875 L 151.679688 175.726562 L 151.902344 175.0625 L 152.25 174.808594 L 152.53125 174.503906 L 152.714844 174.167969 L 153.210938 173.582031 L 154.367188 173.34375 L 154.925781 173.199219 L 155.285156 173.011719 L 155.832031 173.25 L 156.484375 172.945312 L 156.816406 172.652344 L 157.363281 172.117188 L 157.3125 171.8125 L 157.738281 171.613281 L 158.269531 171.414062 L 158.65625 170.894531 L 158.601562 170.585938 L 158.523438 170.109375 L 158.109375 169.910156 L 157.789062 169.828125 L 157.257812 170.109375 L 156.324219 170.695312 L 156.605469 170.453125 L 156.898438 169.894531 L 157.269531 169.773438 L 157.484375 169.5625 L 157.378906 169.257812 L 157.164062 169.03125 L 156.898438 169.015625 L 156.019531 169.136719 L 155.765625 168.671875 L 155.351562 168.429688 L 154.742188 167.871094 L 155.140625 167.617188 L 155.101562 167.363281 L 154.726562 167.3125 L 154.6875 166.980469 L 154.367188 166.726562 L 154.15625 166.511719 L 153.796875 166.621094 L 153.941406 166.285156 L 153.875 165.914062 L 153.648438 165.671875 L 153.300781 165.554688 L 153.050781 165.140625 L 152.996094 164.726562 L 152.984375 164.648438 L 152.808594 164.660156 L 152.796875 164.660156 L 152.730469 164.980469 L 152.714844 165.0625 L 152.714844 165.074219 L 152.476562 165.554688 L 152.183594 165.726562 L 152.023438 165.925781 L 151.746094 166.234375 L 151.398438 166.351562 L 151.160156 166.445312 L 150.917969 166.101562 L 150.707031 165.992188 L 150.199219 166.035156 L 150.054688 165.460938 L 150.039062 165.140625 L 150.039062 164.96875 L 150.054688 164.582031 L 150.066406 164.328125 L 149.695312 164.382812 L 149.601562 164.207031 L 149.386719 163.984375 L 149.027344 164.222656 L 148.789062 164.261719 L 148.535156 163.847656 L 148.042969 163.636719 L 147.988281 163.609375 L 147.871094 163.554688 L 147.429688 163.328125 L 147.015625 163.703125 L 146.363281 163.621094 L 145.726562 163.636719 L 145.140625 163.808594 L 145.21875 164.355469 L 145.300781 164.863281 L 145.351562 165.3125 L 145.644531 165.367188 L 145.820312 165.964844 L 145.683594 166.257812 L 145.191406 166.59375 L 145.074219 167.070312 L 145.125 167.113281 L 145.257812 167.21875 L 145.710938 167.605469 L 146.164062 168.257812 L 146.445312 168.496094 L 146.605469 168.628906 L 146.699219 168.710938 L 146.628906 169.535156 L 146.445312 170.109375 L 146.230469 170.269531 L 146.019531 170.453125 L 145.886719 170.5625 L 145.5 170.972656 L 145.671875 171.480469 L 145.777344 171.667969 L 145.910156 171.894531 L 145.910156 171.933594 L 145.992188 172.4375 L 145.953125 173.34375 L 145.738281 173.730469 L 145.632812 173.71875 L 145.445312 173.691406 L 145.097656 173.652344 L 144.6875 173.265625 L 144.527344 172.839844 L 144.167969 172.480469 L 144.085938 172.039062 L 144.007812 171.507812 L 143.914062 170.894531 L 143.394531 170.667969 L 142.234375 170.839844 L 141.625 170.640625 L 141.4375 170.585938 L 140.917969 170.402344 L 140.492188 170.027344 L 140.34375 169.960938 L 140.171875 169.882812 L 139.90625 169.761719 L 139.347656 169.65625 L 138.789062 169.46875 L 138.28125 169.722656 L 137.882812 169.429688 L 137.628906 169.121094 C 139.320312 164.527344 141.636719 160.242188 144.460938 156.339844 L 144.648438 156.445312 L 144.648438 156.230469 L 144.804688 156.125 L 144.992188 156.179688 L 145.273438 156.390625 L 145.378906 156.246094 L 145.527344 156.472656 L 145.578125 156.765625 L 145.898438 156.859375 L 145.777344 157.257812 L 145.886719 157.363281 L 146.042969 157.539062 L 146.191406 157.46875 L 146.390625 157.363281 L 146.539062 157.164062 L 146.765625 157.042969 L 146.804688 157.296875 L 146.84375 157.589844 L 146.855469 157.589844 L 147.125 157.710938 L 147.296875 157.777344 L 147.335938 158.054688 L 147.484375 158.429688 L 147.628906 158.617188 L 147.351562 158.695312 L 147.390625 158.949219 L 147.457031 159.09375 L 147.550781 159.214844 L 147.417969 159.363281 L 147.269531 159.546875 L 147.070312 159.828125 L 146.882812 160.082031 L 146.898438 160.375 L 147.644531 160.894531 L 147.550781 161.121094 L 146.871094 161.347656 L 146.605469 161.480469 L 145.964844 161.480469 L 145.472656 161.757812 L 145.339844 161.839844 L 145.3125 161.890625 L 145.085938 162.464844 L 145.152344 162.796875 L 145.351562 162.851562 L 145.550781 162.984375 L 146.03125 162.824219 L 146.324219 162.476562 L 146.484375 162.464844 L 146.523438 162.464844 L 146.699219 162.425781 L 146.804688 162.382812 L 146.816406 162.371094 L 146.722656 162 L 146.855469 162.066406 L 146.976562 162.050781 L 147.214844 161.972656 L 147.324219 162.132812 L 147.578125 162.132812 L 147.722656 162.277344 L 148.003906 162.398438 L 148.09375 162.476562 L 148.203125 162.570312 L 148.347656 162.703125 L 148.441406 162.796875 L 148.773438 162.742188 L 148.90625 162.851562 L 148.722656 163.011719 L 148.65625 163.0625 L 148.707031 163.195312 L 148.707031 163.222656 L 148.839844 163.238281 L 149.226562 163.238281 L 149.347656 163.171875 L 149.386719 163.15625 L 149.761719 163.105469 L 150.28125 162.984375 L 150.679688 163.011719 L 151.050781 162.957031 L 151.386719 162.984375 L 151.785156 162.890625 L 151.769531 162.664062 L 151.503906 162.71875 L 151.265625 162.449219 L 150.917969 162.425781 L 150.464844 162.199219 L 150.054688 161.957031 L 150.199219 161.890625 L 150.574219 161.796875 L 150.8125 161.679688 L 151.105469 161.933594 L 151.625 161.757812 L 152.105469 161.90625 L 152.023438 161.53125 L 152.117188 161.304688 L 152.0625 161.011719 L 151.902344 160.828125 L 151.703125 160.828125 L 150.867188 160.480469 L 150.625 160.214844 L 150.453125 159.949219 L 150.320312 159.855469 L 150.398438 159.28125 L 150.359375 159.003906 L 150.71875 158.855469 L 150.945312 159.160156 L 151.117188 159.296875 L 151.316406 159.480469 L 151.664062 159.519531 L 151.703125 159.722656 L 151.902344 159.761719 L 152.0625 159.90625 L 152.25 160.09375 L 152.691406 160.121094 L 152.96875 160.082031 L 152.996094 159.90625 L 152.957031 159.441406 L 153.234375 159.320312 L 153.289062 159.09375 L 153.261719 158.894531 L 153.886719 158.800781 L 153.875 158.164062 L 153.742188 157.964844 L 153.515625 157.789062 L 153.183594 157.832031 L 152.757812 158.125 L 152.625 158.109375 L 152.464844 158.125 L 152.171875 158.175781 L 151.835938 157.683594 L 151.625 157.324219 L 151.425781 157.445312 L 151.316406 157.578125 L 151.183594 157.777344 L 150.824219 157.921875 L 150.613281 157.644531 L 150.507812 157.523438 L 150.371094 157.363281 L 150.320312 157.3125 L 149.734375 157.191406 L 149.558594 157.042969 L 149.507812 156.765625 L 149.679688 156.726562 L 149.851562 156.5 L 149.71875 156.21875 L 150.054688 156.164062 L 149.785156 156.003906 L 149.441406 156.019531 L 149.28125 155.78125 L 149.46875 155.621094 L 149.695312 155.511719 L 149.695312 155.207031 L 149.386719 155.085938 L 149.375 155.261719 L 149.082031 155.261719 L 148.816406 154.925781 L 148.496094 154.875 L 148.386719 154.859375 L 148.28125 155.007812 L 148.203125 155.339844 L 148.1875 155.445312 L 148.164062 155.394531 L 148.09375 155.152344 L 148.003906 154.859375 L 147.84375 154.6875 L 147.644531 154.539062 L 147.496094 154.328125 C 147.496094 154.328125 147.191406 154.367188 147.082031 154.382812 C 146.949219 154.394531 147.003906 154.433594 147.003906 154.433594 L 146.589844 154.5 L 146.484375 154.339844 L 146.136719 154.566406 L 146.113281 154.394531 L 146.125 154.273438 L 146.125 154.167969 C 147.828125 152.050781 149.679688 150.066406 151.691406 148.230469 L 151.996094 148.1875 L 152.582031 148.296875 L 152.929688 148.546875 L 153.101562 148.722656 L 153.195312 148.707031 L 153.34375 148.679688 L 153.59375 148.589844 L 153.796875 148.679688 L 153.886719 148.921875 L 153.96875 149.09375 L 154.660156 149.386719 L 155.058594 149.480469 L 155.113281 149.492188 L 155.152344 149.707031 L 155.167969 149.800781 L 155.101562 150.199219 L 155.433594 150.199219 L 155.539062 150.507812 L 155.871094 150.71875 L 155.925781 151.039062 L 156.273438 151.226562 L 156.324219 151.542969 L 156.152344 151.691406 L 156.074219 152.023438 L 156.074219 152.332031 L 156.03125 152.542969 L 156.058594 152.714844 L 156.378906 152.730469 L 156.617188 152.636719 L 156.910156 152.464844 L 157.085938 152.476562 L 157.296875 152.476562 L 157.804688 152.382812 L 157.882812 152.570312 L 158.136719 152.597656 L 158.46875 152.609375 L 158.667969 152.703125 L 158.574219 152.96875 L 158.617188 153.222656 L 158.789062 153.449219 L 158.75 153.636719 L 158.441406 153.703125 L 158.230469 153.59375 L 157.882812 153.449219 L 157.3125 153.421875 L 156.816406 153.503906 L 156.792969 153.515625 L 156.539062 153.59375 L 156.511719 153.609375 L 156.539062 153.609375 L 156.710938 153.675781 L 156.976562 153.742188 L 157.125 153.902344 L 157.644531 153.941406 L 157.789062 154.113281 L 158.054688 154.195312 L 158.335938 154.300781 L 158.574219 154.246094 L 158.75 154.15625 L 158.949219 154.140625 L 159.082031 154.300781 L 159.136719 154.609375 L 159.242188 154.914062 L 159.226562 155.300781 L 159.003906 155.328125 L 159.042969 155.699219 L 159.027344 156.019531 L 158.789062 155.992188 L 158.523438 156.03125 L 158.308594 156.257812 L 158.269531 156.457031 L 158.46875 156.550781 L 158.988281 156.484375 L 159.226562 156.445312 L 159.335938 156.671875 L 159.429688 156.925781 L 159.121094 157.019531 L 158.800781 157.003906 L 158.535156 156.925781 L 158.242188 157.097656 L 157.964844 157.390625 L 158.015625 157.710938 L 158.257812 157.988281 L 158.097656 158.269531 L 158.164062 158.628906 L 158.375 158.734375 L 158.457031 158.910156 L 158.710938 158.867188 L 159.054688 159.070312 L 159.175781 159.496094 L 159.160156 159.746094 L 159.054688 159.960938 L 159.226562 160.199219 L 159.496094 159.90625 L 159.535156 159.707031 L 159.707031 159.601562 L 159.949219 159.574219 L 159.8125 159.90625 L 159.589844 160.082031 L 159.414062 160.226562 L 159.589844 160.519531 L 159.855469 160.667969 L 159.90625 160.90625 L 160 161.09375 L 160.027344 161.09375 L 160.214844 161.054688 L 160.242188 161.054688 L 160.398438 161.277344 L 160.574219 161.414062 L 160.613281 161.4375 L 160.640625 161.585938 L 160.679688 161.757812 L 161.105469 161.453125 L 161.121094 161.4375 L 161.132812 161.4375 L 161.226562 161.664062 L 161.464844 161.945312 L 161.503906 162.265625 L 161.71875 162.34375 L 161.8125 162.597656 L 161.972656 162.824219 L 162.332031 162.652344 L 162.476562 162.371094 L 162.703125 162.199219 L 162.8125 162.449219 L 163.050781 162.730469 L 163.488281 162.652344 L 163.796875 162.664062 L 163.957031 162.835938 L 164.15625 162.929688 L 164.355469 163.355469 L 164.5 163.210938 L 164.675781 163.050781 L 164.714844 162.851562 L 164.621094 162.675781 L 164.410156 162.449219 L 164.542969 162.171875 L 164.742188 161.773438 L 164.769531 161.503906 L 164.863281 161.304688 L 164.863281 160.535156 L 164.929688 160.425781 L 165.035156 160.265625 L 165.101562 160.1875 L 165.179688 160.105469 L 165.289062 159.90625 L 165.378906 159.707031 L 165.339844 159.453125 L 165.328125 158.949219 L 165.367188 158.683594 L 165.433594 158.28125 L 165.449219 158.109375 L 165.671875 157.9375 L 165.765625 157.617188 L 166.3125 157.46875 L 166.605469 157.21875 L 166.914062 157.125 L 167.003906 157.363281 L 167.257812 157.378906 L 167.417969 157.164062 L 167.550781 157.136719 L 167.738281 157.109375 L 167.777344 157.109375 L 168.058594 156.871094 L 168.269531 156.523438 L 168.351562 156.257812 L 168.523438 156.046875 L 168.75 155.871094 L 169.164062 155.246094 L 169.441406 155.074219 L 169.414062 154.832031 L 169.347656 154.382812 L 169.5625 154.554688 L 169.761719 154.582031 L 170.109375 154.394531 L 170.414062 154.300781 L 170.535156 154.273438 L 170.800781 154.300781 L 171.105469 154.179688 L 171.28125 154.15625 L 171.519531 154.0625 L 171.691406 153.96875 L 171.867188 153.808594 L 171.984375 153.730469 L 172.238281 153.753906 L 172.546875 153.714844 L 172.679688 153.300781 L 173.039062 153.128906 L 173.199219 152.902344 L 173.449219 152.941406 L 173.597656 152.664062 L 174.023438 152.53125 L 174.328125 152.476562 L 174.371094 152.277344 L 174.515625 152.011719 L 174.890625 151.519531 L 174.394531 151.585938 L 174.0625 151.570312 L 173.664062 151.371094 L 173.359375 151.425781 L 172.945312 151.746094 L 172.703125 151.769531 L 172.8125 151.25 L 172.851562 151.050781 L 172.691406 150.890625 L 172.851562 150.613281 L 172.636719 150.453125 L 172.453125 150.480469 L 172.066406 150.480469 L 171.746094 150.53125 L 171.464844 150.320312 L 171.652344 150.292969 L 171.90625 150.238281 L 172.277344 150.1875 L 172.503906 150.144531 L 172.703125 150.1875 L 172.972656 150.214844 L 173.171875 150.304688 L 173.398438 150.464844 L 173.675781 150.691406 L 173.785156 150.851562 L 174.050781 150.945312 L 174.304688 151.023438 L 174.582031 151.117188 L 174.890625 151.132812 L 175.089844 151.160156 L 175.25 151.011719 L 175.222656 150.757812 L 175.117188 150.464844 L 174.753906 150.253906 L 174.53125 149.972656 L 173.917969 149.746094 L 173.636719 149.535156 L 173.371094 149.453125 L 173.144531 149.292969 L 172.945312 149.199219 L 172.703125 149.292969 L 172.464844 149.335938 L 172.144531 149.320312 L 172.066406 149.1875 L 171.960938 149.027344 L 171.984375 149 L 172.117188 148.828125 L 172.304688 148.722656 L 172.53125 148.5625 L 172.824219 148.386719 L 173.050781 148.679688 L 173.265625 148.773438 L 173.425781 148.933594 L 173.449219 148.933594 L 173.675781 148.960938 L 173.757812 149.121094 L 173.929688 149.425781 L 174.222656 149.574219 L 174.421875 149.613281 L 174.675781 149.695312 L 174.847656 149.613281 L 174.703125 149.441406 L 174.542969 149.214844 L 174.824219 149.042969 L 174.664062 148.867188 L 174.621094 148.828125 L 174.261719 148.679688 L 173.984375 148.46875 L 173.542969 148.214844 L 173.996094 148.148438 L 174.25 148.175781 L 174.621094 148.121094 L 174.835938 147.882812 L 175.140625 147.777344 L 175.289062 147.441406 L 175.046875 147.164062 L 174.449219 147.441406 L 174.449219 146.992188 L 174.941406 146.855469 L 174.902344 146.617188 L 174.847656 146.246094 L 174.476562 145.910156 L 174.714844 145.871094 L 174.929688 145.910156 L 175.195312 146.058594 L 175.339844 145.726562 L 175.300781 145.472656 L 174.835938 144.914062 L 174.542969 145.074219 L 174.222656 145.125 L 174.394531 144.914062 L 174.542969 144.648438 L 174.503906 144.445312 L 174.460938 144.339844 L 174.410156 144.207031 L 175.128906 144.195312 L 175.300781 144.195312 L 175.449219 144.300781 L 175.753906 144.246094 L 175.996094 144.101562 L 175.835938 143.886719 L 175.742188 143.742188 L 175.582031 143.515625 L 175.339844 143.609375 L 174.96875 143.660156 L 174.742188 143.5 L 175.128906 143.0625 L 174.664062 143.007812 L 173.902344 142.996094 C 173.902344 142.996094 173.902344 142.996094 173.875 142.808594 C 173.851562 142.636719 174.128906 142.835938 174.128906 142.835938 L 174.582031 142.769531 L 174.742188 142.234375 L 175.117188 141.796875 L 175.035156 141.238281 L 175.808594 140.863281 L 175.78125 140.679688 L 175.234375 140.4375 L 174.808594 140.519531 L 174.449219 140.691406 L 174.328125 140.386719 L 174.609375 140.160156 L 175.046875 140.09375 L 175.328125 140.226562 L 176.195312 140.105469 L 176.527344 139.667969 L 176.859375 139.332031 L 176.914062 139.292969 L 177.125 139.082031 L 177.40625 138.839844 L 177.605469 138.5625 L 178.070312 138.613281 L 178.429688 138.121094 L 178.03125 137.976562 L 177.300781 138.09375 L 177.085938 138.132812 L 176.953125 138.148438 L 176.488281 138.214844 L 175.433594 138.375 L 175.074219 138.628906 L 174.648438 138.695312 L 174.210938 138.761719 L 173.890625 138.746094 L 173.53125 138.921875 L 173.210938 139.28125 L 173.011719 139.585938 L 172.597656 139.824219 L 172.53125 139.839844 L 172.320312 139.867188 L 172.039062 139.90625 L 171.8125 139.691406 L 172.105469 139.519531 L 172.332031 139.359375 L 172.503906 139.265625 L 172.664062 139.054688 L 172.878906 138.761719 L 172.664062 138.613281 L 172.277344 138.601562 L 171.851562 138.679688 L 171.773438 139.066406 L 171.171875 139.265625 L 170.773438 139.082031 L 170.429688 138.90625 L 170.414062 138.894531 L 170.175781 138.90625 L 169.789062 138.921875 L 168.871094 139.199219 L 168.296875 139.265625 L 167.472656 139.667969 L 167.484375 139.507812 L 167.484375 139.332031 L 167.964844 139.082031 L 168.136719 139.011719 L 168.617188 138.839844 L 169.683594 138.695312 L 170.574219 138.535156 L 170.894531 138.46875 L 172.039062 138.253906 L 172.796875 138.269531 L 173.238281 138.203125 L 173.515625 137.910156 L 173.570312 137.507812 L 173.050781 137.402344 L 172.863281 137.441406 L 172.359375 137.457031 L 172.210938 137.390625 L 172.144531 137.347656 L 171.839844 137.347656 L 171.453125 137.335938 L 171.347656 137.097656 L 171.171875 136.921875 C 176.3125 135.257812 181.800781 134.351562 187.5 134.351562 C 199.9375 134.351562 211.363281 138.628906 220.417969 145.777344 L 220.472656 146.191406 L 220.644531 146.589844 L 220.367188 146.683594 L 220.113281 146.550781 L 219.992188 146.976562 L 219.738281 146.910156 L 219.578125 146.699219 L 219.5 146.457031 L 219.085938 146.589844 L 218.847656 146.617188 L 218.835938 146.921875 L 218.40625 146.816406 L 218.140625 146.738281 L 217.863281 146.765625 L 217.648438 146.976562 L 217.597656 147.148438 L 217.554688 147.375 L 217.527344 147.417969 L 217.128906 147.46875 L 216.890625 147.507812 L 216.71875 147.484375 L 216.515625 147.457031 L 216.796875 147.285156 L 216.890625 147.097656 L 216.582031 147.082031 L 216.425781 146.871094 L 216.238281 146.832031 L 215.664062 147.335938 L 215.34375 147.617188 L 215.050781 147.683594 L 214.824219 147.828125 L 214.507812 148.054688 L 214.332031 148.148438 L 214.105469 148.230469 L 214.09375 148.253906 L 213.945312 148.375 L 213.628906 148.613281 L 213.613281 148.921875 L 213.613281 149.28125 L 213.308594 149.574219 L 213.132812 149.707031 L 212.910156 149.800781 L 212.667969 149.734375 L 212.390625 149.46875 L 212.324219 149.121094 L 212.480469 148.90625 L 212.800781 148.628906 L 212.683594 148.214844 L 212.457031 147.894531 L 212.003906 147.789062 L 211.296875 147.894531 L 211.285156 148.203125 L 211.429688 148.363281 L 211.390625 148.839844 L 211.363281 149.082031 L 211.417969 149.441406 L 211.351562 149.867188 L 211.296875 150.238281 L 211.230469 150.546875 L 210.710938 150.386719 L 210.578125 150.226562 L 210.390625 150.199219 L 210.164062 150.386719 L 210.019531 150.519531 L 209.964844 150.558594 L 209.765625 150.824219 L 209.59375 151.210938 L 209.617188 151.398438 L 209.84375 151.71875 L 210.046875 151.929688 L 209.765625 151.972656 L 209.433594 151.785156 L 209.167969 151.652344 L 208.808594 151.625 L 208.539062 151.492188 L 208.3125 151.53125 L 208.300781 151.890625 L 208.355469 152.238281 L 208.554688 152.332031 L 208.847656 152.664062 L 208.78125 152.957031 L 208.433594 153.074219 L 208.140625 153.117188 L 207.6875 152.941406 L 207.542969 152.78125 L 207.328125 152.53125 L 207.089844 152.195312 L 206.96875 151.796875 L 206.863281 151.503906 L 206.554688 151.386719 L 206.222656 151.25 L 205.851562 151.117188 L 205.636719 150.917969 L 205.410156 150.53125 L 205.039062 150.105469 L 205.703125 150.492188 L 205.984375 150.4375 L 206.183594 150.585938 L 206.503906 150.679688 L 206.996094 150.71875 L 207.289062 150.730469 L 207.59375 150.746094 L 208.128906 150.773438 L 208.460938 150.917969 L 208.859375 150.730469 L 209.140625 150.320312 L 209.367188 150.105469 L 209.578125 149.90625 L 209.710938 149.785156 L 209.832031 149.679688 L 209.644531 149.226562 L 209.539062 148.882812 L 209.21875 148.882812 L 208.914062 148.679688 L 208.820312 148.613281 L 208.488281 148.375 L 208.328125 148.308594 L 208.085938 148.203125 L 207.792969 148.070312 L 206.914062 147.910156 L 206.675781 147.9375 L 206.183594 147.828125 L 205.824219 147.828125 L 205.34375 147.910156 L 205.15625 147.800781 L 204.71875 147.710938 L 204.863281 147.496094 L 204.613281 147.285156 L 204.425781 147.324219 L 204.132812 147.363281 L 203.894531 147.402344 L 203.398438 147.65625 L 203.1875 147.441406 L 203.347656 147.308594 L 203.441406 147.164062 L 203.773438 146.992188 L 203.347656 146.578125 L 203.171875 146.617188 L 203.039062 146.511719 L 202.789062 146.363281 L 202.746094 146.550781 L 202.789062 146.777344 L 202.507812 146.949219 L 202.292969 146.699219 L 202.480469 146.351562 L 202.386719 146.191406 L 202.1875 146.097656 L 202.054688 146.246094 L 202.027344 146.550781 L 201.949219 146.855469 L 201.921875 147.042969 L 201.75 147.125 L 201.617188 146.964844 L 201.574219 146.789062 L 201.457031 146.738281 L 201.429688 146.992188 L 201.296875 147.257812 L 201.269531 147.285156 L 201.191406 147.390625 L 201.191406 147.46875 L 201.175781 147.628906 L 201.03125 147.84375 L 200.921875 147.550781 L 200.898438 147.375 L 201.003906 147.214844 L 201.03125 147.164062 L 201.082031 147.03125 L 201.121094 146.921875 L 200.976562 146.765625 L 200.871094 146.722656 L 200.722656 146.683594 L 200.589844 146.65625 L 200.535156 146.644531 L 200.351562 146.671875 L 200.351562 146.976562 L 200.242188 147.109375 L 200.019531 147.214844 L 199.992188 147.441406 L 199.832031 147.601562 L 199.605469 147.695312 L 199.433594 147.722656 L 199.03125 147.535156 L 198.832031 147.496094 L 198.726562 147.46875 L 198.847656 147.871094 L 198.765625 148.003906 L 198.566406 147.960938 L 198.3125 147.894531 L 198.433594 148.175781 L 198.246094 148.214844 L 198.019531 148.296875 L 197.820312 148.574219 L 197.632812 148.535156 L 197.5 148.816406 L 197.273438 148.949219 L 197.128906 149.226562 L 196.996094 149.414062 L 196.980469 149.785156 L 196.863281 150.214844 L 196.609375 150.4375 L 196.394531 150.652344 L 196.25 150.664062 L 196.167969 150.679688 L 196.277344 150.957031 L 196.367188 151.183594 L 196.355469 151.292969 L 196.34375 151.386719 L 196.183594 151.585938 L 195.996094 151.902344 L 195.824219 151.929688 L 195.664062 152.089844 L 195.582031 152.398438 L 195.277344 152.757812 L 195.238281 152.808594 L 195.15625 153.128906 L 194.945312 153.328125 L 194.878906 153.648438 L 194.664062 153.796875 L 194.503906 153.886719 L 194.304688 153.914062 L 194.078125 154.316406 L 194 154.566406 L 193.785156 154.714844 L 193.757812 154.953125 L 194 155.046875 L 194.183594 155.019531 L 194.039062 155.273438 L 193.773438 155.445312 L 193.53125 155.472656 L 193.480469 155.328125 L 193.4375 155.246094 L 193.265625 155.21875 L 193.09375 155.246094 L 192.867188 155.339844 L 192.828125 155.378906 L 192.707031 155.539062 L 192.867188 155.699219 L 192.988281 155.792969 L 192.535156 155.992188 L 192.558594 156.230469 L 192.386719 156.257812 L 192.160156 156.296875 L 192.054688 156.484375 L 192.082031 156.660156 L 191.988281 156.671875 L 191.816406 156.816406 L 191.734375 157.070312 L 191.496094 157.109375 L 191.363281 157.296875 L 191.082031 157.46875 L 190.988281 157.65625 L 190.84375 157.9375 L 191.015625 158.269531 L 191.070312 158.617188 L 191.242188 159.015625 L 191.402344 159.160156 L 191.855469 159.042969 L 191.800781 159.519531 L 191.480469 159.695312 L 191.453125 159.933594 L 191.480469 160.175781 L 191.722656 160.132812 L 191.839844 160.480469 L 191.882812 160.839844 L 192.214844 160.972656 L 192.519531 161.027344 L 193.226562 160.933594 L 193.492188 160.707031 L 193.730469 160.308594 L 194.132812 160.121094 L 194.316406 159.867188 L 194.597656 159.761719 L 194.835938 159.960938 L 194.917969 160.253906 L 195.089844 160.535156 L 195.105469 160.625 L 195.128906 160.800781 L 195.144531 160.878906 L 195.410156 161.320312 L 195.847656 161.558594 L 196.050781 161.652344 L 196.128906 161.8125 L 195.929688 162.078125 L 195.769531 162.226562 L 195.488281 162.332031 L 195.53125 162.625 L 195.238281 162.664062 L 195.050781 162.636719 L 195.105469 162.996094 L 195.316406 163.261719 L 195.703125 163.261719 L 195.769531 163.078125 L 195.730469 162.824219 L 195.824219 162.570312 L 196.050781 162.476562 L 196.074219 162.652344 L 196.222656 162.8125 L 196.621094 162.691406 L 196.78125 162.542969 L 196.796875 162.238281 L 196.941406 161.984375 L 197.140625 161.824219 L 197.726562 161.679688 L 197.914062 161.292969 L 197.859375 161 L 197.808594 160.585938 L 197.875 160.214844 L 197.875 159.855469 L 197.832031 159.613281 L 197.875 159.429688 L 198.101562 159.386719 L 198.273438 159.363281 L 198.554688 159.214844 L 198.726562 159.121094 L 198.820312 158.933594 L 198.726562 158.761719 L 198.898438 158.375 L 198.621094 158.054688 L 198.417969 157.84375 L 198.167969 157.832031 L 197.980469 157.722656 L 197.78125 157.644531 L 197.527344 156.417969 L 197.621094 156.21875 L 197.59375 155.992188 L 197.953125 155.632812 L 198.019531 155.261719 L 198.058594 155.21875 L 198.179688 155.125 L 198.179688 154.765625 L 198.394531 154.539062 L 198.953125 154.339844 L 199.230469 154.128906 L 199.296875 153.796875 L 199.566406 153.582031 L 199.390625 153.300781 L 199.179688 153.035156 L 199.378906 152.769531 L 199.523438 152.570312 L 199.726562 152.304688 L 199.910156 151.902344 L 200.3125 151.835938 L 200.457031 152.011719 L 201.109375 151.902344 L 201.441406 152.089844 L 201.484375 152.382812 L 201.484375 152.742188 L 201.164062 153.035156 L 200.910156 153.382812 L 200.777344 153.703125 L 200.589844 153.96875 L 200.46875 154.40625 L 200.164062 154.753906 L 200.136719 154.820312 L 200.058594 155.007812 L 200.019531 155.085938 L 200.109375 155.605469 L 200.164062 155.953125 L 200.351562 156.351562 L 200.191406 156.617188 L 200.402344 156.816406 L 200.496094 157.042969 L 200.617188 157.019531 L 200.84375 156.925781 L 201.03125 156.964844 L 201.003906 157.152344 L 200.855469 157.417969 L 201.28125 157.402344 L 201.375 157.578125 L 201.816406 157.75 L 202.015625 157.539062 L 202.148438 157.21875 L 202.308594 157.070312 L 202.640625 156.84375 L 202.867188 156.75 L 203.214844 156.699219 L 203.507812 156.589844 L 203.734375 156.550781 L 204.039062 156.925781 L 204.277344 157.019531 L 204.519531 156.976562 L 204.691406 156.898438 L 204.890625 156.976562 L 204.757812 157.296875 L 204.597656 157.511719 L 204.253906 157.578125 L 204 157.484375 L 203.984375 157.84375 L 203.535156 157.976562 L 203.214844 157.910156 L 202.921875 157.949219 L 202.679688 157.855469 L 202.414062 158.203125 L 202.121094 158.257812 L 201.894531 158.28125 L 201.75 158.484375 L 201.589844 158.628906 L 201.628906 158.910156 L 201.640625 158.976562 L 201.722656 159.070312 L 201.789062 159.136719 L 201.976562 159.226562 L 201.988281 160.082031 L 201.789062 160.28125 L 201.640625 160.492188 L 201.375 160.398438 L 201.296875 160.242188 L 201.164062 160.132812 L 200.9375 159.867188 L 200.589844 159.988281 L 200.710938 160.375 L 200.722656 160.800781 L 200.644531 161.121094 L 200.511719 161.386719 L 200.402344 161.570312 L 200.429688 161.746094 L 200.445312 161.8125 L 200.46875 161.839844 L 200.605469 162.011719 L 200.644531 162.25 L 200.605469 162.292969 L 200.378906 162.542969 L 200.296875 162.371094 L 200.125 162.332031 L 200.03125 162.652344 L 200.003906 162.890625 L 199.949219 163.261719 L 199.683594 163.117188 L 199.523438 163.210938 L 199.390625 163.515625 L 199.230469 163.25 L 199.097656 163.144531 L 198.726562 163.210938 L 198.59375 163.410156 L 198.046875 163.730469 L 197.59375 163.914062 L 197.367188 164.023438 L 197.128906 164.101562 L 196.726562 164.117188 L 196.515625 163.96875 L 196.089844 163.847656 L 195.957031 163.875 L 195.730469 164.382812 L 195.449219 164.421875 L 195.289062 164.277344 L 195.105469 164.117188 L 194.878906 164.15625 L 194.636719 163.957031 L 194.558594 163.609375 L 194.824219 163.449219 L 194.835938 163.195312 L 194.675781 162.984375 L 194.636719 162.691406 L 194.746094 162.25 L 194.785156 162.066406 L 194.464844 161.863281 L 194.34375 161.53125 L 194.53125 161.199219 L 194.492188 160.933594 L 194.492188 160.90625 L 194.398438 160.773438 L 194.332031 160.679688 L 194.238281 160.8125 L 194.078125 161.027344 L 193.933594 161.292969 L 193.746094 161.625 L 193.359375 161.796875 L 193.679688 161.863281 L 193.199219 162.371094 L 193.371094 162.636719 L 193.574219 162.851562 L 193.597656 163.089844 L 193.71875 163.371094 L 193.878906 163.582031 L 193.957031 163.808594 L 194.117188 164.328125 L 194.210938 164.609375 L 193.917969 165.085938 L 193.8125 165.085938 L 193.558594 165.074219 L 193.292969 165.179688 L 192.878906 165.300781 L 192.707031 165.328125 L 192.386719 165.367188 L 192.375 165.554688 L 192.214844 165.699219 L 192.039062 166.101562 L 192.027344 166.445312 L 192.027344 166.820312 L 192 166.992188 L 191.5625 167.070312 L 191.375 167.085938 L 191.363281 167.097656 L 191.015625 167.273438 L 190.789062 167.363281 L 190.507812 167.578125 L 190.507812 167.882812 L 190.429688 168.136719 L 190.257812 168.335938 L 189.921875 168.457031 L 189.84375 168.710938 L 189.617188 168.804688 L 189.335938 168.976562 L 189.179688 168.683594 L 188.816406 168.683594 L 188.75 169.003906 L 188.84375 169.230469 L 188.953125 169.5625 L 188.738281 169.722656 L 188.484375 169.695312 L 188.257812 169.722656 L 188.019531 169.761719 L 187.660156 170 L 187.488281 170.136719 L 187.394531 170.347656 L 187.433594 170.628906 L 187.6875 170.652344 L 188.125 170.707031 L 188.511719 170.988281 L 189.019531 171.238281 L 189.523438 171.507812 L 189.722656 171.867188 L 189.804688 172.398438 L 189.816406 172.625 L 189.832031 172.824219 L 189.855469 173.199219 L 189.949219 173.796875 L 189.710938 174.023438 L 189.21875 173.902344 L 188.75 173.96875 L 188.339844 173.851562 L 187.9375 173.890625 L 187.539062 173.96875 L 186.980469 174.25 L 186.566406 174.183594 L 186.222656 174.089844 L 186.113281 174.25 L 185.941406 174.476562 L 185.554688 174.609375 L 185.382812 174.835938 L 185.4375 175.089844 L 185.675781 175.394531 L 185.863281 175.703125 L 185.929688 176.234375 L 185.996094 176.699219 L 185.863281 177.046875 L 185.796875 177.527344 L 185.863281 177.925781 L 185.96875 178.246094 L 186.140625 178.417969 L 186.234375 179.015625 L 186.273438 179.351562 L 186.753906 179.417969 L 187.261719 179.191406 L 187.460938 179.164062 L 187.699219 179.46875 L 188.019531 179.683594 L 188.351562 179.710938 L 188.726562 179.441406 L 188.9375 179.21875 L 189.335938 179.148438 L 189.683594 179.109375 L 189.855469 178.871094 L 189.9375 178.589844 L 190.28125 178.269531 L 190.550781 178.164062 L 190.644531 177.871094 L 190.667969 177.59375 L 190.960938 177.285156 L 190.988281 177.074219 L 190.816406 176.832031 L 190.84375 176.554688 L 191.054688 176.195312 L 191.230469 175.886719 L 191.320312 175.742188 L 191.5625 175.433594 L 191.921875 175.183594 L 192.292969 174.929688 L 192.386719 174.78125 L 192.46875 174.355469 L 192.425781 174.089844 L 192.199219 173.851562 L 192.292969 173.636719 L 192.652344 173.464844 L 192.679688 173.4375 L 193.144531 173.4375 L 193.625 173.570312 L 193.972656 173.652344 L 194.160156 173.425781 L 194.292969 173.132812 L 194.609375 173.023438 L 194.851562 172.71875 L 194.996094 172.34375 L 195.464844 172.277344 L 195.78125 172.691406 L 196.023438 172.929688 L 196.355469 173.304688 L 196.476562 173.609375 L 196.78125 173.96875 L 197.15625 174.117188 L 197.515625 174.328125 L 197.886719 174.460938 L 198.3125 174.609375 L 198.753906 174.941406 L 199.152344 175.234375 L 199.445312 175.394531 L 199.566406 175.703125 L 199.632812 176.167969 L 199.605469 176.433594 L 199.417969 176.671875 L 199.257812 176.765625 L 198.980469 176.804688 L 198.710938 176.914062 L 198.394531 177.097656 L 198.207031 177.058594 L 198.394531 177.367188 L 198.820312 177.5 L 199.164062 177.660156 L 199.390625 177.765625 L 199.390625 177.417969 L 199.484375 177.058594 L 199.804688 176.953125 L 199.964844 176.726562 L 200.152344 176.5 L 200.296875 176.195312 L 200.296875 175.792969 L 200.269531 175.59375 L 200.109375 175.421875 L 200.042969 175.089844 L 200.484375 174.824219 L 200.789062 175.035156 L 200.445312 174.554688 L 200.203125 174.316406 L 199.910156 174.167969 L 199.683594 173.996094 L 199.378906 173.703125 L 199.164062 173.664062 L 198.40625 173.515625 L 198.140625 173.144531 L 198.046875 172.890625 L 197.753906 172.746094 L 197.300781 172.464844 L 197.0625 172.238281 L 197.089844 172.011719 L 197.101562 171.824219 L 197.101562 171.707031 L 196.929688 171.253906 L 197.472656 170.972656 L 197.648438 171.773438 L 197.660156 171.800781 L 197.714844 171.773438 L 197.898438 171.640625 L 198.191406 171.253906 L 198.578125 171.613281 L 198.59375 171.691406 L 198.621094 171.878906 L 198.632812 171.945312 L 198.726562 172.253906 L 199.179688 172.386719 L 199.605469 172.585938 L 200.136719 172.984375 L 200.898438 173.078125 L 201.230469 173.492188 L 201.375 174.476562 L 201.484375 174.742188 L 201.816406 175.15625 L 202.347656 175.476562 L 202.679688 175.886719 L 202.960938 176.0625 L 203.375 176.0625 L 203.015625 176.378906 L 203.132812 176.699219 L 203.464844 176.714844 L 203.917969 176.511719 L 204.265625 176.195312 L 204.265625 176.179688 L 204.304688 175.996094 L 204.414062 175.953125 L 204.558594 175.875 L 204.453125 175.632812 L 204.332031 175.59375 L 204.132812 175.542969 L 204.105469 175.542969 L 203.773438 175.527344 L 203.585938 175.289062 L 203.492188 175.035156 L 203.519531 174.769531 L 203.398438 174.449219 L 203.347656 174.128906 L 203.640625 174.328125 L 203.867188 174.304688 L 204.039062 174.277344 L 204.160156 174.0625 L 204.039062 173.808594 L 204.371094 173.757812 L 204.972656 173.730469 L 205.144531 174.035156 L 205.359375 174.476562 L 205.53125 174.796875 L 205.703125 174.96875 L 205.742188 175.234375 L 205.585938 175.515625 L 205.703125 175.847656 L 206.035156 175.875 L 206.128906 176.445312 L 206.449219 176.40625 L 206.703125 176.632812 L 207.117188 176.78125 L 207.648438 177.097656 L 207.886719 176.992188 L 208.046875 176.699219 L 208.167969 176.488281 L 208.539062 176.421875 L 208.980469 176.621094 L 209.339844 176.765625 L 209.753906 176.714844 L 210.046875 176.460938 L 210.390625 176.085938 L 210.75 175.820312 L 210.910156 176.394531 L 210.925781 176.511719 L 210.964844 176.6875 L 211.003906 176.992188 L 211.097656 177.660156 L 211.175781 178.113281 L 211.058594 178.671875 L 211.058594 179.082031 L 211.015625 179.351562 L 210.871094 179.710938 L 209.886719 179.804688 L 209.632812 179.960938 L 209.351562 179.871094 L 208.953125 179.9375 L 208.527344 180.203125 L 208.328125 180.296875 L 208.007812 180.363281 L 207.675781 180.347656 L 207.382812 180.242188 L 207.328125 180.722656 L 207.074219 180.828125 L 206.875 180.855469 L 206.664062 180.828125 L 206.304688 180.613281 L 205.957031 180.589844 L 205.636719 180.640625 L 205.410156 180.46875 L 205.277344 180.414062 L 205.171875 180.375 L 204.785156 180.375 L 204.503906 180.414062 L 204.238281 180.441406 L 204.011719 180.214844 L 203.851562 180.042969 L 203.519531 180.097656 L 203.253906 180.136719 L 202.855469 180.535156 L 202.679688 180.761719 L 202.734375 181.160156 L 202.789062 181.480469 L 202.613281 181.707031 L 202.453125 181.945312 L 202.054688 181.933594 L 201.84375 181.894531 L 201.550781 181.800781 L 201.203125 181.652344 L 200.761719 181.519531 L 200.269531 181.320312 L 199.898438 181.054688 L 199.351562 181.066406 L 198.871094 180.933594 L 198.394531 180.882812 L 198.125 180.640625 L 197.808594 180.628906 L 197.566406 180.457031 L 197.433594 180.164062 L 197.355469 179.988281 L 197.273438 179.828125 L 197.449219 179.601562 L 197.355469 179.003906 L 197.046875 178.789062 L 197.167969 178.296875 L 197.421875 177.777344 L 197.035156 177.84375 L 196.769531 177.871094 L 196.433594 177.9375 L 195.996094 178.136719 L 195.582031 178.125 L 195.304688 178.03125 L 195.222656 178.257812 L 194.890625 178.3125 L 194.597656 178.269531 L 194.117188 178.152344 L 193.730469 178.269531 L 193.707031 178.3125 L 193.53125 178.457031 L 193.320312 178.683594 L 192.734375 178.765625 L 192.320312 178.699219 L 192.054688 178.804688 L 191.894531 179.097656 L 191.601562 179.335938 L 191.160156 179.550781 L 191.054688 179.761719 L 190.601562 179.894531 L 190.28125 180.015625 L 190.042969 180.1875 L 189.445312 180.28125 L 189.191406 180.390625 L 188.925781 180.429688 L 188.578125 180.28125 L 188.285156 180.1875 L 187.964844 180.242188 L 188.03125 180.695312 L 187.964844 181.109375 L 187.738281 181.480469 L 187.511719 181.785156 L 187.511719 181.800781 L 187.285156 182.027344 L 186.925781 182.28125 L 186.59375 182.800781 L 186.582031 183.558594 L 186.648438 184.078125 L 186.699219 184.410156 L 186.765625 184.808594 L 186.582031 185.371094 L 186.089844 186.046875 L 185.875 186.367188 L 185.570312 186.675781 L 185.410156 186.96875 L 185.089844 187.085938 L 184.851562 187.792969 L 184.449219 188.59375 L 184.382812 189.003906 L 184.117188 189.523438 L 184.023438 190.214844 L 183.585938 190.882812 L 183.664062 191.402344 L 183.863281 191.855469 L 183.890625 191.921875 L 183.957031 192.109375 L 184.011719 192.242188 L 184.023438 192.917969 L 184.105469 193.359375 L 184.34375 193.679688 L 184.4375 194.265625 L 184.382812 194.730469 L 184.332031 195.289062 L 184.15625 195.929688 L 184.039062 196.488281 L 184.277344 196.78125 L 184.421875 197.289062 L 184.609375 197.605469 L 184.851562 197.832031 L 185.089844 198.140625 L 185.355469 198.5 L 185.714844 198.644531 L 185.875 198.832031 L 186.273438 199.179688 L 186.59375 199.539062 L 186.78125 199.976562 L 186.96875 200.21875 L 187.234375 200.644531 L 187.328125 200.75 L 187.394531 200.828125 L 187.5 200.921875 L 187.78125 201.175781 L 188.457031 201.683594 L 188.976562 201.933594 L 189.496094 202.253906 L 189.84375 202.335938 L 190.203125 202.429688 L 190.46875 202.386719 L 191.535156 201.894531 L 191.90625 201.683594 L 192.308594 201.628906 L 192.828125 201.535156 L 193.160156 201.496094 L 193.746094 201.335938 L 194.199219 201.203125 L 194.558594 201.015625 L 194.96875 200.964844 L 195.371094 200.484375 L 195.675781 200.242188 L 196.609375 199.964844 L 196.636719 199.964844 L 196.808594 200.019531 L 196.929688 200.042969 L 197.421875 200.3125 L 197.539062 200.617188 L 197.621094 201.148438 L 198.058594 201.363281 L 198.710938 201.203125 L 199.070312 201.003906 L 199.40625 200.949219 L 200.019531 201.390625 L 200.203125 201.707031 L 200.175781 202.519531 L 200.175781 202.789062 L 200.097656 203.199219 L 200.257812 204.199219 L 200.003906 204.851562 L 200.644531 205.492188 L 201.363281 206.183594 L 202.109375 207.15625 L 202.253906 207.660156 L 202.574219 208.019531 L 202.988281 208.488281 L 203.121094 209.300781 L 203.226562 209.59375 L 203.292969 209.765625 L 203.375 209.992188 L 203.464844 210.65625 L 203.585938 211.042969 L 203.652344 211.484375 L 203.746094 212.164062 L 203.453125 212.75 L 203.414062 213.082031 L 203.414062 213.828125 L 203.347656 214.386719 L 203.332031 214.441406 L 203.265625 214.652344 L 203.171875 214.945312 L 203.199219 215.613281 L 203.507812 216.183594 L 203.773438 216.664062 L 204.171875 217.078125 L 204.597656 218.101562 L 205.078125 218.566406 L 205.664062 219.6875 L 205.742188 220.273438 L 205.824219 220.820312 L 206.089844 221.511719 L 206.171875 221.710938 L 206.210938 221.871094 L 206.304688 222.230469 L 206.648438 222.710938 L 207.050781 223.121094 L 207.433594 223.457031 L 207.675781 224.109375 L 207.980469 224.707031 L 208.046875 224.851562 L 208.0625 224.894531 L 208.195312 225.238281 L 208.355469 225.546875 L 208.339844 226.292969 L 208.433594 226.824219 L 208.59375 227.0625 L 209.03125 227.195312 L 209.617188 227.171875 L 209.660156 227.171875 L 209.910156 227.089844 L 210.136719 227.023438 L 211.203125 226.863281 L 211.484375 226.558594 L 212.214844 226.4375 L 212.480469 226.398438 L 213.160156 226.023438 L 213.507812 225.71875 L 213.507812 225.707031 L 213.601562 225.546875 L 213.667969 225.414062 L 213.894531 225.121094 L 214.054688 224.8125 L 214.28125 224.574219 L 214.453125 224.28125 L 214.667969 223.972656 L 214.839844 223.679688 L 214.890625 223.203125 L 215.105469 222.894531 L 215.265625 222.535156 L 215.503906 222.296875 L 215.664062 222.003906 L 215.398438 221.699219 L 215.996094 221.550781 L 215.878906 220.75 L 215.730469 220.234375 L 215.476562 219.941406 L 215.730469 219.765625 L 215.996094 219.445312 L 216.382812 219.261719 L 216.703125 219.152344 L 216.863281 218.914062 L 216.824219 218.648438 L 216.703125 216.929688 L 216.503906 216.542969 L 216.410156 216.355469 L 216.171875 216.117188 L 216.0625 215.796875 L 216.078125 215.476562 L 216.316406 215.304688 L 216.398438 214.945312 L 216.582031 214.386719 L 216.796875 214.082031 L 217.476562 213.707031 L 218.113281 213.320312 L 218.316406 212.894531 L 218.609375 212.175781 L 218.714844 211.484375 L 218.621094 210.964844 L 218.554688 210.550781 L 218.527344 210.378906 L 218.5 210.113281 L 218.40625 209.753906 L 218.367188 209.578125 L 218.289062 209.257812 L 218.195312 208.605469 L 217.929688 208.222656 L 217.621094 207.941406 L 217.542969 206.957031 L 217.664062 206.449219 L 217.371094 206.222656 L 217.035156 205.929688 L 216.984375 205.476562 L 217.25 204.636719 L 217.144531 203.90625 L 217.277344 203.480469 L 217.488281 203.105469 L 217.957031 202.628906 L 218.140625 202.082031 L 218.566406 201.308594 L 218.742188 200.683594 L 219.019531 200.378906 L 219.511719 199.964844 L 220.03125 199.417969 L 220.566406 198.460938 L 221.003906 197.78125 L 221.21875 197.074219 L 221.21875 196.609375 L 221.390625 195.902344 L 221.644531 194.917969 L 221.921875 194.132812 L 221.976562 193.585938 L 222.097656 193.027344 L 222.03125 192.535156 L 222.003906 192.441406 L 222.003906 192.375 L 221.910156 191.90625 L 221.484375 192.175781 L 221.113281 192.359375 L 220.738281 192.507812 L 220.539062 192.601562 L 220.191406 192.917969 L 220.058594 193.078125 L 219.914062 193.292969 L 219.339844 193.332031 L 219.167969 193.347656 L 218.847656 193.386719 L 218.488281 193.304688 L 217.863281 192.785156 L 217.394531 192.332031 L 217.355469 192.015625 L 216.863281 191.613281 L 216.648438 191.375 L 216.355469 191.148438 L 216.039062 190.921875 L 215.8125 190.589844 L 215.453125 190.484375 L 215.4375 190.46875 L 215.265625 190.375 L 215.050781 190.269531 L 214.878906 189.765625 L 214.71875 189.363281 L 214.707031 189.324219 L 214.640625 189.191406 L 214.480469 188.910156 L 214.160156 188.605469 L 213.828125 188.207031 L 213.507812 187.898438 L 213.335938 187.285156 L 213.335938 186.742188 L 213.214844 186.488281 L 212.867188 186.007812 L 212.347656 185.636719 L 211.9375 184.703125 L 211.710938 184.398438 L 211.402344 183.542969 L 211.175781 183.199219 L 210.75 182.8125 L 210.683594 182.371094 L 210.363281 182.066406 L 210.324219 181.707031 L 210.257812 181.359375 L 210.589844 181.761719 L 210.976562 181.972656 L 211.5625 182.238281 L 211.910156 182.734375 L 212.148438 183.144531 L 212.773438 183.679688 L 213.214844 184.15625 L 213.894531 184.582031 L 213.960938 184.929688 L 214.027344 185.382812 L 214.082031 185.820312 L 214.320312 186.140625 L 214.464844 186.488281 L 214.851562 187.234375 L 214.960938 187.285156 L 215.160156 187.40625 L 215.636719 187.660156 L 216.0625 188.125 L 216.398438 188.523438 L 216.675781 189.203125 L 216.675781 189.230469 L 216.742188 189.390625 L 216.851562 189.722656 L 217.035156 190.402344 L 217.183594 190.75 L 217.808594 191.28125 L 218.101562 191.414062 L 218.566406 191.523438 L 219.152344 191.175781 L 219.394531 191.136719 L 219.941406 191.042969 L 220.765625 190.5625 L 221.269531 190.308594 L 221.550781 189.910156 L 221.910156 189.65625 L 222.058594 189.5625 L 222.058594 189.511719 L 222.070312 189.019531 L 222.734375 188.644531 L 222.949219 188.339844 L 223.042969 188.207031 L 223.175781 188.03125 L 223.214844 187.992188 L 223.5625 187.605469 L 224.242188 187.328125 L 224.441406 186.941406 L 224.628906 186.289062 L 224.839844 185.980469 L 225.1875 185.300781 L 225.121094 184.863281 L 225.480469 184.265625 L 225.226562 183.757812 L 224.519531 183.332031 L 224.148438 183.199219 L 223.75 182.984375 L 223.507812 182.574219 L 223.203125 182.359375 L 223.136719 181.921875 L 222.644531 182.585938 L 222.617188 182.640625 L 222.507812 182.957031 L 222.484375 183.011719 L 221.722656 183.304688 L 221.390625 183.453125 L 221.03125 183.410156 L 220.765625 182.917969 L 220.605469 182.480469 L 220.324219 182.441406 L 220.140625 182.917969 L 219.804688 182.519531 L 219.566406 182.105469 L 219.179688 181.347656 L 218.835938 180.867188 L 218.5 180.457031 L 218.273438 180.136719 L 218.289062 179.695312 L 218.902344 179.511719 L 219.511719 179.417969 L 219.925781 179.804688 L 220.058594 180.136719 L 220.191406 180.390625 L 220.539062 180.789062 L 220.75 181.027344 L 221.136719 181.320312 L 221.457031 181.453125 L 221.910156 181.574219 L 222.296875 181.507812 L 222.484375 181.46875 L 222.523438 181.46875 L 222.949219 181.320312 L 223.308594 181.269531 L 223.667969 181.292969 L 224 181.695312 L 224.226562 181.933594 L 224.574219 181.878906 L 225.507812 182.09375 L 225.984375 182.292969 L 226.929688 182.066406 L 228.328125 181.667969 L 228.769531 181.785156 L 228.96875 181.839844 L 229.15625 181.894531 L 229.167969 181.894531 L 229.300781 182.160156 L 230.046875 182.398438 L 230.566406 182.773438 L 230.953125 182.984375 L 231.390625 182.917969 L 230.886719 183.71875 L 230.660156 184.023438 L 231.273438 184.464844 L 231.898438 184.542969 L 232.269531 184.492188 L 232.496094 184.277344 L 232.402344 183.664062 L 232.46875 183.386719 L 232.75 183.53125 L 232.921875 184.039062 L 233.003906 184.636719 L 233.003906 185.277344 L 233.230469 186.0625 L 233.589844 186.914062 L 233.640625 187.058594 L 233.65625 187.074219 L 234.070312 188.085938 L 234.546875 188.832031 L 234.65625 189.523438 L 234.679688 189.617188 L 234.839844 190.136719 L 234.867188 190.164062 L 235.480469 190.761719 L 236.066406 191.65625 L 236.253906 192.347656 L 236.773438 192.734375 L 237.171875 192.386719 L 237.371094 191.921875 L 237.691406 191.695312 L 237.8125 191.933594 L 237.917969 192.640625 L 238.195312 193.226562 L 238.382812 193.839844 L 238.847656 193.945312 L 239.15625 193.625 L 239.074219 193.105469 L 238.914062 192.667969 L 238.503906 192.292969 L 238.277344 191.960938 L 238.144531 191.707031 L 237.8125 191.308594 L 237.675781 190.429688 L 237.585938 189.816406 L 237.675781 189.257812 L 237.558594 188.457031 L 237.476562 187.9375 L 237.503906 187.488281 L 238.105469 186.765625 L 238.476562 186.261719 L 238.902344 186.101562 L 239.410156 185.300781 L 239.863281 184.691406 L 240.207031 184.011719 L 240.378906 183.878906 L 240.5 183.785156 C 240.59375 185.007812 240.660156 186.25 240.660156 187.511719 C 240.648438 216.851562 216.863281 240.632812 187.511719 240.632812 Z M 170.082031 137.308594 L 170.082031 137.28125 C 170.320312 137.203125 170.5625 137.121094 170.800781 137.042969 L 170.695312 137.136719 L 170.679688 137.148438 L 170.507812 137.28125 L 170.402344 137.308594 L 170.054688 137.347656 Z M 219.804688 171.773438 L 219.859375 171.894531 L 219.886719 172 L 219.964844 172.066406 L 220.019531 171.972656 L 220.179688 171.933594 L 220.207031 171.917969 L 220.339844 171.894531 L 220.40625 171.917969 L 220.40625 172 L 220.339844 172.238281 L 220.445312 172.453125 L 220.539062 172.570312 L 220.605469 172.691406 L 220.699219 172.785156 L 220.75 172.878906 L 220.765625 172.972656 L 220.699219 173.011719 L 220.671875 173.023438 L 220.632812 173.15625 L 220.710938 173.410156 L 220.726562 173.597656 L 220.765625 173.796875 L 220.75 173.902344 L 220.777344 174.117188 L 220.832031 174.210938 L 220.832031 174.316406 L 220.792969 174.394531 L 220.660156 174.421875 L 220.605469 174.355469 L 220.433594 174.316406 L 220.339844 174.34375 L 220.191406 174.410156 L 220.058594 174.449219 L 219.980469 174.582031 L 219.859375 174.675781 L 219.59375 174.675781 L 219.328125 174.570312 L 219.261719 174.449219 L 219.152344 174.410156 L 219.007812 174.394531 L 218.902344 174.316406 L 218.753906 174.289062 L 218.632812 174.316406 L 218.5 174.328125 L 218.355469 174.277344 L 218.25 174.25 L 218.222656 174.183594 L 218.183594 174.117188 L 218.167969 174.023438 L 218.15625 173.96875 L 217.941406 173.652344 L 217.808594 173.542969 L 217.78125 173.371094 L 217.835938 173.25 L 217.929688 173.050781 L 217.941406 172.972656 L 217.996094 172.730469 L 218.035156 172.597656 L 218.035156 172.453125 L 218.113281 172.34375 L 218.089844 172.1875 L 218.0625 172.011719 L 218.074219 171.894531 L 218.234375 171.867188 L 218.328125 171.8125 L 218.289062 171.746094 L 218.183594 171.679688 L 218.074219 171.707031 L 217.957031 171.585938 L 217.847656 171.453125 L 217.820312 171.398438 L 217.6875 171.214844 L 217.648438 171.171875 L 217.542969 171.105469 L 217.371094 170.945312 L 217.25 170.894531 L 217.15625 170.800781 L 217.128906 170.601562 L 216.984375 170.507812 L 216.796875 170.308594 L 216.648438 169.75 L 216.53125 169.65625 L 216.503906 169.457031 L 216.558594 169.308594 L 216.4375 169.230469 L 216.304688 169.175781 L 216.183594 169.230469 L 216.105469 169.296875 L 216.0625 169.175781 L 216.0625 168.988281 L 216.078125 168.738281 L 216.144531 168.257812 L 216.15625 168.058594 L 216.199219 167.777344 L 216.332031 167.65625 L 216.410156 167.511719 L 216.503906 167.566406 L 216.675781 167.65625 L 216.875 167.40625 L 216.769531 167.378906 L 216.730469 167.273438 L 216.929688 167.21875 L 217.011719 167.257812 L 217.15625 167.3125 L 217.234375 167.21875 L 217.25 167.085938 L 217.316406 167.003906 L 217.664062 167.058594 L 217.742188 167.03125 L 217.863281 166.804688 L 217.863281 166.726562 L 217.929688 166.566406 L 217.996094 166.511719 L 218.140625 166.445312 L 218.300781 166.433594 L 218.367188 166.578125 L 218.515625 166.660156 L 218.566406 166.699219 L 218.78125 166.699219 L 218.96875 166.671875 L 219.074219 166.804688 L 219.179688 166.886719 L 219.488281 166.953125 L 219.726562 166.992188 L 219.765625 167.207031 L 219.832031 167.378906 L 219.941406 167.523438 L 220.046875 167.605469 L 220.152344 167.722656 L 220.164062 167.84375 L 220.140625 168.003906 L 220.019531 168.125 L 219.847656 168.203125 L 219.6875 168.152344 L 219.566406 168.085938 L 219.433594 168.085938 L 219.285156 168.03125 L 219.195312 168.015625 L 219.140625 168.003906 L 218.953125 168.003906 L 218.886719 168.136719 L 218.835938 168.257812 L 218.59375 168.296875 C 218.59375 168.296875 218.59375 168.269531 218.527344 168.324219 C 218.460938 168.390625 218.460938 168.390625 218.460938 168.390625 L 218.476562 168.683594 L 218.632812 168.789062 L 218.609375 168.894531 L 218.339844 168.910156 L 218.046875 168.976562 L 218.128906 169.175781 L 218.328125 169.257812 L 218.527344 169.347656 L 218.59375 169.523438 L 218.675781 169.601562 L 218.847656 169.722656 L 218.992188 169.800781 L 219.101562 169.855469 L 219.433594 169.855469 L 219.59375 170.535156 L 219.699219 170.535156 L 219.792969 170.507812 L 219.820312 170.496094 L 219.898438 170.402344 L 219.941406 170.347656 L 219.980469 170.308594 L 220.058594 170.375 L 220.179688 170.386719 L 220.378906 170.546875 C 220.378906 170.546875 220.378906 170.628906 220.433594 170.695312 C 220.484375 170.761719 220.59375 170.855469 220.59375 170.855469 L 220.859375 170.960938 L 220.820312 171.105469 L 220.738281 171.132812 L 220.726562 171.292969 L 220.683594 171.398438 L 220.660156 171.464844 L 220.550781 171.507812 L 220.445312 171.492188 L 220.285156 171.464844 L 220.164062 171.375 L 220.085938 171.347656 L 220.03125 171.332031 L 219.980469 171.308594 L 219.953125 171.347656 L 219.859375 171.507812 L 219.78125 171.640625 Z M 187.511719 131.929688 C 156.859375 131.929688 131.929688 156.859375 131.929688 187.5 C 131.929688 218.140625 156.859375 243.070312 187.511719 243.070312 C 218.140625 243.070312 243.070312 218.140625 243.070312 187.5 C 243.070312 156.859375 218.140625 131.929688 187.511719 131.929688"/><path fill="#100F0D" d="M 155.035156 122.582031 L 153.941406 120.410156 C 154.675781 120.039062 155.417969 119.675781 156.164062 119.332031 L 157.175781 121.542969 C 156.457031 121.875 155.738281 122.222656 155.035156 122.582031"/><g clip-path="url(#a)"><path fill="#100F0D" d="M 194 115.203125 C 192.453125 115.070312 190.867188 114.976562 189.296875 114.9375 L 189.351562 112.511719 C 190.988281 112.554688 192.613281 112.644531 194.210938 112.792969 Z M 179.855469 115.324219 L 179.601562 112.898438 C 181.214844 112.738281 182.839844 112.621094 184.476562 112.554688 L 184.570312 114.976562 C 182.984375 115.042969 181.414062 115.148438 179.855469 115.324219 Z M 203.332031 116.65625 C 201.800781 116.308594 200.257812 116.015625 198.6875 115.777344 L 199.070312 113.378906 C 200.683594 113.632812 202.28125 113.925781 203.867188 114.285156 Z M 170.546875 116.90625 L 169.988281 114.550781 C 171.558594 114.179688 173.15625 113.84375 174.769531 113.566406 L 175.183594 115.960938 C 173.609375 116.230469 172.078125 116.546875 170.546875 116.90625 Z M 212.402344 119.304688 C 210.925781 118.757812 209.417969 118.265625 207.902344 117.828125 L 208.59375 115.496094 C 210.164062 115.949219 211.695312 116.453125 213.226562 117.015625 Z M 161.53125 119.703125 L 160.667969 117.441406 C 162.171875 116.855469 163.730469 116.320312 165.273438 115.84375 L 165.992188 118.160156 C 164.488281 118.625 162.996094 119.144531 161.53125 119.703125 Z M 221.042969 123.113281 C 219.648438 122.394531 218.234375 121.703125 216.785156 121.0625 L 217.769531 118.839844 C 219.261719 119.503906 220.726562 120.210938 222.164062 120.957031 Z M 229.113281 128.027344 C 227.835938 127.121094 226.503906 126.257812 225.160156 125.445312 L 226.425781 123.367188 C 227.824219 124.21875 229.179688 125.109375 230.511719 126.03125 Z M 236.480469 133.941406 C 235.320312 132.875 234.121094 131.847656 232.898438 130.863281 L 234.414062 128.972656 C 235.691406 129.984375 236.917969 131.050781 238.117188 132.140625 Z M 243.015625 140.746094 C 242.003906 139.546875 240.953125 138.375 239.863281 137.242188 L 241.605469 135.550781 C 242.738281 136.722656 243.828125 137.933594 244.882812 139.1875 Z M 248.625 148.347656 C 247.773438 147.015625 246.878906 145.726562 245.945312 144.445312 L 247.90625 143.007812 C 248.863281 144.328125 249.796875 145.660156 250.675781 147.03125 Z M 253.191406 156.589844 C 252.527344 155.167969 251.792969 153.769531 251.046875 152.398438 L 253.164062 151.210938 C 253.949219 152.636719 254.695312 154.089844 255.390625 155.554688 Z M 120.316406 160.015625 L 118.066406 159.082031 C 118.691406 157.578125 119.359375 156.085938 120.0625 154.632812 L 122.246094 155.699219 C 121.554688 157.109375 120.917969 158.550781 120.316406 160.015625 Z M 256.640625 165.367188 C 256.175781 163.863281 255.628906 162.382812 255.070312 160.917969 L 257.320312 160.027344 C 257.917969 161.546875 258.464844 163.078125 258.957031 164.636719 Z M 117.320312 168.964844 L 114.964844 168.351562 C 115.390625 166.765625 115.855469 165.207031 116.363281 163.664062 L 118.679688 164.433594 C 118.171875 165.925781 117.71875 167.429688 117.320312 168.964844 Z M 258.929688 174.53125 C 258.636719 172.972656 258.320312 171.425781 257.933594 169.910156 L 260.289062 169.324219 C 260.6875 170.894531 261.023438 172.492188 261.316406 174.101562 Z M 115.507812 178.230469 L 113.097656 177.925781 C 113.3125 176.300781 113.566406 174.6875 113.886719 173.105469 L 116.269531 173.570312 C 115.960938 175.101562 115.710938 176.660156 115.507812 178.230469 Z M 259.996094 183.90625 C 259.917969 182.320312 259.796875 180.761719 259.609375 179.203125 L 262.019531 178.925781 C 262.207031 180.535156 262.339844 182.148438 262.421875 183.785156 Z M 112.5 187.660156 L 112.5 187.5 C 112.5 185.914062 112.554688 184.34375 112.644531 182.785156 L 115.070312 182.945312 C 114.976562 184.449219 114.921875 185.96875 114.921875 187.5 Z M 262.261719 193.546875 L 259.851562 193.347656 C 259.96875 191.789062 260.050781 190.214844 260.078125 188.632812 L 262.5 188.671875 C 262.472656 190.308594 262.394531 191.933594 262.261719 193.546875 Z M 113.152344 197.394531 C 112.9375 195.769531 112.765625 194.144531 112.671875 192.535156 L 115.097656 192.386719 C 115.191406 193.957031 115.351562 195.53125 115.5625 197.074219 Z M 260.863281 203.199219 L 258.492188 202.695312 C 258.8125 201.164062 259.089844 199.605469 259.316406 198.046875 L 261.726562 198.394531 C 261.488281 200.003906 261.195312 201.617188 260.863281 203.199219 Z M 115.042969 206.96875 C 114.628906 205.410156 114.257812 203.8125 113.9375 202.214844 L 116.320312 201.734375 C 116.628906 203.292969 116.988281 204.824219 117.402344 206.34375 Z M 258.210938 212.589844 L 255.921875 211.777344 C 256.441406 210.296875 256.921875 208.792969 257.347656 207.273438 L 259.691406 207.929688 C 259.25 209.511719 258.757812 211.058594 258.210938 212.589844 Z M 118.1875 216.199219 C 117.574219 214.707031 116.988281 213.175781 116.46875 211.644531 L 118.773438 210.859375 C 119.277344 212.347656 119.835938 213.828125 120.4375 215.277344 Z M 254.351562 221.550781 L 252.179688 220.457031 C 252.898438 219.0625 253.578125 217.636719 254.203125 216.171875 L 256.425781 217.144531 C 255.789062 218.632812 255.097656 220.113281 254.351562 221.550781 Z M 122.5 224.945312 C 121.6875 223.546875 120.917969 222.109375 120.195312 220.644531 L 122.382812 219.566406 C 123.074219 220.992188 123.820312 222.363281 124.605469 223.734375 Z M 249.355469 229.941406 L 247.34375 228.582031 C 248.238281 227.277344 249.101562 225.945312 249.902344 224.601562 L 251.980469 225.839844 C 251.152344 227.238281 250.273438 228.609375 249.355469 229.941406 Z M 127.921875 233.054688 C 126.921875 231.765625 125.976562 230.433594 125.070312 229.089844 L 127.09375 227.742188 C 127.972656 229.046875 128.894531 230.328125 129.839844 231.578125 Z M 243.308594 237.609375 L 241.511719 236 C 242.566406 234.828125 243.578125 233.617188 244.550781 232.378906 L 246.453125 233.882812 C 245.441406 235.160156 244.402344 236.398438 243.308594 237.609375 Z M 134.339844 240.40625 C 133.179688 239.25 132.074219 238.0625 131.011719 236.824219 L 132.835938 235.226562 C 133.875 236.425781 134.9375 237.570312 136.058594 238.691406 Z M 236.332031 244.429688 L 234.746094 242.589844 C 235.945312 241.566406 237.105469 240.5 238.238281 239.410156 L 239.929688 241.140625 C 238.769531 242.273438 237.570312 243.378906 236.332031 244.429688 Z M 141.648438 246.867188 C 140.359375 245.855469 139.105469 244.816406 137.894531 243.75 L 139.492188 241.925781 C 140.679688 242.964844 141.890625 243.964844 143.140625 244.933594 Z M 228.527344 250.289062 L 227.210938 248.265625 C 228.527344 247.398438 229.808594 246.492188 231.074219 245.546875 L 232.539062 247.492188 C 231.230469 248.464844 229.902344 249.394531 228.527344 250.289062 Z M 149.746094 252.3125 C 148.335938 251.488281 146.949219 250.632812 145.605469 249.714844 L 146.964844 247.703125 C 148.269531 248.582031 149.601562 249.421875 150.972656 250.222656 Z M 220.046875 255.097656 L 218.992188 252.910156 C 220.417969 252.21875 221.816406 251.488281 223.175781 250.714844 L 224.375 252.832031 C 222.960938 253.632812 221.511719 254.390625 220.046875 255.097656 Z M 158.484375 256.679688 C 156.976562 256.042969 155.5 255.363281 154.046875 254.644531 L 155.125 252.472656 C 156.539062 253.164062 157.964844 253.832031 159.429688 254.441406 Z M 211.015625 258.746094 L 210.246094 256.441406 C 211.75 255.949219 213.226562 255.402344 214.679688 254.816406 L 215.597656 257.066406 C 214.082031 257.664062 212.5625 258.238281 211.015625 258.746094 Z M 167.710938 259.863281 C 166.140625 259.4375 164.582031 258.945312 163.050781 258.425781 L 163.835938 256.132812 C 165.328125 256.640625 166.832031 257.105469 168.351562 257.519531 Z M 201.5625 261.179688 L 201.109375 258.796875 C 202.667969 258.503906 204.199219 258.160156 205.71875 257.773438 L 206.328125 260.117188 C 204.757812 260.527344 203.160156 260.875 201.5625 261.179688 Z M 177.273438 261.808594 C 175.660156 261.59375 174.050781 261.316406 172.464844 260.996094 L 172.945312 258.613281 C 174.488281 258.917969 176.035156 259.199219 177.605469 259.410156 Z M 191.882812 262.367188 L 191.734375 259.941406 C 193.332031 259.863281 194.890625 259.714844 196.449219 259.53125 L 196.742188 261.941406 C 195.128906 262.128906 193.519531 262.285156 191.882812 262.367188 Z M 187.007812 262.5 C 185.371094 262.488281 183.746094 262.421875 182.132812 262.3125 L 182.304688 259.890625 C 183.851562 259.996094 185.4375 260.0625 187.019531 260.0625 L 187.007812 262.5"/></g><path fill="#100F0D" d="M 124.578125 151.304688 L 122.488281 150.078125 C 122.898438 149.375 123.3125 148.667969 123.753906 147.976562 L 125.816406 149.253906 C 125.390625 149.933594 124.992188 150.613281 124.578125 151.304688"/><path fill="#100F0D" d="M 146.976562 123.207031 C 148.613281 121.59375 151.023438 124.046875 149.347656 125.695312 L 142.542969 132.433594 L 146.230469 147.644531 L 143.714844 150.132812 L 137.457031 137.546875 L 132.367188 142.582031 L 132.820312 146.484375 L 130.824219 148.457031 L 128.535156 144.019531 L 124.125 141.675781 L 126.121094 139.707031 L 129.984375 140.183594 L 135.085938 135.136719 L 122.566406 128.746094 L 125.085938 126.242188 L 140.117188 129.984375 L 146.976562 123.207031"/></svg>